{"accessors":[{"bufferView":0,"componentType":5126,"count":105756,"max":[5.384586811065674,33.9808235168457,5.384586811065674],"min":[-5.384586811065674,0.0,-5.384586811065674],"type":"VEC3"},{"bufferView":1,"componentType":5126,"count":105756,"type":"VEC3"},{"bufferView":2,"componentType":5126,"count":105756,"type":"VEC2"},{"bufferView":3,"componentType":5125,"count":105756,"type":"SCALAR"},{"bufferView":4,"componentType":5126,"count":309894,"max":[6.005000114440918,51.18000030517578,6.005000114440918],"min":[-6.005000114440918,-6.319417946119572e-16,-6.005000114440918],"type":"VEC3"},{"bufferView":5,"componentType":5126,"count":309894,"type":"VEC3"},{"bufferView":6,"componentType":5126,"count":309894,"type":"VEC2"},{"bufferView":7,"componentType":5125,"count":309894,"type":"SCALAR"},{"bufferView":8,"componentType":5126,"count":18090,"max":[3.3524999618530273,26.199987411499023,3.3524999618530273],"min":[-3.3524999618530273,0.9314154386520386,-3.3524999618530273],"type":"VEC3"},{"bufferView":9,"componentType":5126,"count":18090,"type":"VEC3"},{"bufferView":10,"componentType":5126,"count":18090,"type":"VEC2"},{"bufferView":11,"componentType":5125,"count":18090,"type":"SCALAR"},{"bufferView":12,"componentType":5126,"count":52998,"max":[3.9024999141693115,28.200000762939453,3.9024999141693115],"min":[-3.9024999141693115,0.0021239931229501963,-3.9024999141693115],"type":"VEC3"},{"bufferView":13,"componentType":5126,"count":52998,"type":"VEC3"},{"bufferView":14,"componentType":5126,"count":52998,"type":"VEC2"},{"bufferView":15,"componentType":5125,"count":52998,"type":"SCALAR"},{"bufferView":16,"componentType":5126,"count":6264,"max":[2.9000000953674316,2.6500000953674316,2.6500000953674316],"min":[0.0,-2.6500000953674316,-2.6500000953674316],"type":"VEC3"},{"bufferView":17,"componentType":5126,"count":6264,"type":"VEC3"},{"bufferView":18,"componentType":5126,"count":6264,"type":"VEC2"},{"bufferView":19,"componentType":5125,"count":6264,"type":"SCALAR"},{"bufferView":20,"componentType":5126,"count":16968,"max":[3.200000047683716,2.25,2.25],"min":[1.6492326259613037,-2.2474515438079834,-2.25],"type":"VEC3"},{"bufferView":21,"componentType":5126,"count":16968,"type":"VEC3"},{"bufferView":22,"componentType":5126,"count":16968,"type":"VEC2"},{"bufferView":23,"componentType":5125,"count":16968,"type":"SCALAR"},{"bufferView":24,"componentType":5126,"count":28512,"max":[2.244999885559082,2.2474515438079834,2.25],"min":[1.4950000047683716,-2.2474515438079834,-2.25],"type":"VEC3"},{"bufferView":25,"componentType":5126,"count":28512,"type":"VEC3"},{"bufferView":26,"componentType":5126,"count":28512,"type":"VEC2"},{"bufferView":27,"componentType":5125,"count":28512,"type":"SCALAR"}],"asset":{"generator":"Keyshot Studio","version":"2.0"},"bufferViews":[{"buffer":0,"byteLength":1269072,"byteOffset":0,"byteStride":12},{"buffer":0,"byteLength":1269072,"byteOffset":1269072,"byteStride":12},{"buffer":0,"byteLength":846048,"byteOffset":2538144,"byteStride":8},{"buffer":0,"byteLength":423024,"byteOffset":3384192},{"buffer":0,"byteLength":3718728,"byteOffset":3807216,"byteStride":12},{"buffer":0,"byteLength":3718728,"byteOffset":7525944,"byteStride":12},{"buffer":0,"byteLength":2479152,"byteOffset":11244672,"byteStride":8},{"buffer":0,"byteLength":1239576,"byteOffset":13723824},{"buffer":0,"byteLength":217080,"byteOffset":14963400,"byteStride":12},{"buffer":0,"byteLength":217080,"byteOffset":15180480,"byteStride":12},{"buffer":0,"byteLength":144720,"byteOffset":15397560,"byteStride":8},{"buffer":0,"byteLength":72360,"byteOffset":15542280},{"buffer":0,"byteLength":635976,"byteOffset":15614640,"byteStride":12},{"buffer":0,"byteLength":635976,"byteOffset":16250616,"byteStride":12},{"buffer":0,"byteLength":423984,"byteOffset":16886592,"byteStride":8},{"buffer":0,"byteLength":211992,"byteOffset":17310576},{"buffer":0,"byteLength":75168,"byteOffset":17522568,"byteStride":12},{"buffer":0,"byteLength":75168,"byteOffset":17597736,"byteStride":12},{"buffer":0,"byteLength":50112,"byteOffset":17672904,"byteStride":8},{"buffer":0,"byteLength":25056,"byteOffset":17723016},{"buffer":0,"byteLength":203616,"byteOffset":17748072,"byteStride":12},{"buffer":0,"byteLength":203616,"byteOffset":17951688,"byteStride":12},{"buffer":0,"byteLength":135744,"byteOffset":18155304,"byteStride":8},{"buffer":0,"byteLength":67872,"byteOffset":18291048},{"buffer":0,"byteLength":342144,"byteOffset":18358920,"byteStride":12},{"buffer":0,"byteLength":342144,"byteOffset":18701064,"byteStride":12},{"buffer":0,"byteLength":228096,"byteOffset":19043208,"byteStride":8},{"buffer":0,"byteLength":114048,"byteOffset":19271304}],"buffers":[{"byteLength":19385352,"uri":"./308_Win_resources/308_Win.bin"}],"cameras":[{"name":"active","perspective":{"aspectRatio":1.0,"yfov":0.6911154697478635,"znear":0.20325835049152374},"type":"perspective"}],"images":[{"uri":"./308_Win_resources/Prach_308_Win_color_128_128_128_0_occlusion.jpeg"},{"uri":"./308_Win_resources/Brass_Rough__#1_12_occlusion.jpeg"},{"uri":"./308_Win_resources/505-141-608-000_Comprime_1_color_128_128_128_175_occlusion.jpeg"},{"uri":"./308_Win_resources/Copper_Rough__#1_190_occlusion.jpeg"},{"uri":"./308_Win_resources/Brass_Rough__#2_533_occlusion.jpeg"},{"uri":"./308_Win_resources/Brass_Rough__#2_545_occlusion.jpeg"},{"uri":"./308_Win_resources/Brass_Rough__#2_583_occlusion.jpeg"}],"materials":[{"doubleSided":true,"name":"Prach_308_Win_color_128_128_128_0","occlusionTexture":{"index":0},"pbrMetallicRoughness":{"baseColorFactor":[0.5019609928131104,0.5019609928131104,0.5019609928131104,1.0],"metallicFactor":0.0,"roughnessFactor":1.0}},{"doubleSided":true,"name":"Brass_Rough__#1_12","occlusionTexture":{"index":1},"pbrMetallicRoughness":{"baseColorFactor":[0.9085993766784668,0.7786409258842468,0.42343220114707947,1.0],"metallicFactor":1.0,"roughnessFactor":0.3162277638912201}},{"doubleSided":true,"name":"505-141-608-000_Comprime_1_color_128_128_128_175","occlusionTexture":{"index":2},"pbrMetallicRoughness":{"baseColorFactor":[0.5019609928131104,0.5019609928131104,0.5019609928131104,1.0],"metallicFactor":0.0,"roughnessFactor":1.0}},{"doubleSided":true,"name":"Copper_Rough__#1_190","occlusionTexture":{"index":3},"pbrMetallicRoughness":{"baseColorFactor":[1.0,0.6110671758651733,0.4308300018310547,1.0],"metallicFactor":1.0,"roughnessFactor":0.3162277638912201}},{"doubleSided":true,"name":"Brass_Rough__#2_533","occlusionTexture":{"index":4},"pbrMetallicRoughness":{"baseColorFactor":[0.9085993766784668,0.7786409258842468,0.42343220114707947,1.0],"metallicFactor":1.0,"roughnessFactor":0.3162277638912201}},{"doubleSided":true,"name":"Brass_Rough__#2_545","occlusionTexture":{"index":5},"pbrMetallicRoughness":{"baseColorFactor":[0.9085993766784668,0.7786409258842468,0.42343220114707947,1.0],"metallicFactor":1.0,"roughnessFactor":0.3162277638912201}},{"doubleSided":true,"name":"Brass_Rough__#2_583","occlusionTexture":{"index":6},"pbrMetallicRoughness":{"baseColorFactor":[0.9085993766784668,0.7786409258842468,0.42343220114707947,1.0],"metallicFactor":1.0,"roughnessFactor":0.3162277638912201}}],"meshes":[{"name":"Prach_308_Win","primitives":[{"attributes":{"NORMAL":1,"POSITION":0,"TEXCOORD_0":2},"indices":3,"material":0,"mode":4}]},{"name":"505-141-612-000_bez importu","primitives":[{"attributes":{"NORMAL":5,"POSITION":4,"TEXCOORD_0":6},"indices":7,"material":1,"mode":4}]},{"name":"505-141-608-000_Comprime_1","primitives":[{"attributes":{"NORMAL":9,"POSITION":8,"TEXCOORD_0":10},"indices":11,"material":2,"mode":4}]},{"name":"505-141-609-000 - Draft - Jacket 308Win","primitives":[{"attributes":{"NORMAL":13,"POSITION":12,"TEXCOORD_0":14},"indices":15,"material":3,"mode":4}]},{"name":"Model_zápalky_308Win","primitives":[{"attributes":{"NORMAL":17,"POSITION":16,"TEXCOORD_0":18},"indices":19,"material":4,"mode":4}]},{"name":"Model_zápalky_308Win","primitives":[{"attributes":{"NORMAL":21,"POSITION":20,"TEXCOORD_0":22},"indices":23,"material":5,"mode":4}]},{"name":"Model_zápalky_308Win","primitives":[{"attributes":{"NORMAL":25,"POSITION":24,"TEXCOORD_0":26},"indices":27,"material":6,"mode":4}]}],"nodes":[{"camera":0,"matrix":[-0.0005595972460995746,-2.112991559499733e-10,0.0008287649703782619,0.0,0.0002040466829189988,0.0009692177117657721,0.0001377762945024013,0.0,-0.0008032533526420593,0.00024620586633682253,-0.0005423712730407715,0.0,-0.18572447204589845,0.08924106597900391,-0.12251139831542969,1.0],"name":"active"},{"mesh":0,"name":"Prach_308_Win"},{"children":[1],"matrix":[1.0,0.0,0.0,0.0,0.0,1.0,0.0,0.0,0.0,0.0,1.0,0.0,0.0,4.599999904632568,-2.1683999774573746e-16,1.0],"name":"Prach_308_Win"},{"mesh":1,"name":"505-141-612-000_bez importu"},{"children":[3],"name":"505-141-612-000_bez importu"},{"mesh":2,"name":"505-141-608-000_Comprime_1"},{"children":[5],"matrix":[6.583459688649113e-17,-2.5458898967905732e-31,1.0,0.0,4.6695899625301036e-33,1.0,2.5458898967905732e-31,0.0,-1.0,4.6695899625301036e-33,6.583459688649113e-17,0.0,0.0,0.0,0.0,1.0],"name":"505-141-608-000_Comprime_1"},{"mesh":3,"name":"505-141-609-000 - Draft - Jacket 308Win"},{"children":[7],"name":"505-141-609-000 - Draft - Jacket 308Win"},{"children":[6,8],"matrix":[1.0,0.0,0.0,0.0,0.0,1.0,0.0,0.0,0.0,0.0,1.0,0.0,0.0,42.91999816894531,0.0,1.0],"name":"505-141-609-000"},{"mesh":4,"name":"Model_zápalky_308Win"},{"mesh":5,"name":"Model_zápalky_308Win"},{"mesh":6,"name":"Model_zápalky_308Win"},{"children":[10,11,12],"matrix":[0.0,1.0,0.0,0.0,-0.8371689915657043,0.0,-0.5469440221786499,0.0,-0.5469440221786499,0.0,0.8371689915657043,0.0,0.0,0.10000000149011612,0.0,1.0],"name":"Model_zápalky_308Win"},{"children":[2,4,9,13],"matrix":[1.0,0.0,0.0,0.0,0.0,6.123233995736766e-17,-1.0,0.0,0.0,1.0,6.123233995736766e-17,0.0,0.0,35.55999946594238,35.55999946594238,1.0],"name":"STVT-Scorpio-308 Win-LAB-33"},{"children":[14],"name":"New Model Set"},{"name":"Default"},{"children":[15,16],"matrix":[0.001,0.0,0.0,0.0,0.0,0.001,0.0,0.0,0.0,0.0,0.001,0.0,0.0,0.0,0.0,1.0],"name":"lux_root"}],"samplers":[{"magFilter":9729,"minFilter":9987,"wrapS":10497,"wrapT":10497},{"magFilter":9729,"minFilter":9987,"wrapS":10497,"wrapT":10497},{"magFilter":9729,"minFilter":9987,"wrapS":10497,"wrapT":10497},{"magFilter":9729,"minFilter":9987,"wrapS":10497,"wrapT":10497},{"magFilter":9729,"minFilter":9987,"wrapS":10497,"wrapT":10497},{"magFilter":9729,"minFilter":9987,"wrapS":10497,"wrapT":10497},{"magFilter":9729,"minFilter":9987,"wrapS":10497,"wrapT":10497}],"scenes":[{"nodes":[0,17]}],"textures":[{"sampler":0,"source":0},{"sampler":1,"source":1},{"sampler":2,"source":2},{"sampler":3,"source":3},{"sampler":4,"source":4},{"sampler":5,"source":5},{"sampler":6,"source":6}]}   