{"accessors":[{"bufferView":0,"componentType":5126,"count":5724,"max":[2.8499999046325684,2.222479820251465,2.2249999046325684],"min":[0.10000000149011612,-2.222479820251465,-2.2249999046325684],"type":"VEC3"},{"bufferView":1,"componentType":5126,"count":5724,"type":"VEC3"},{"bufferView":2,"componentType":5126,"count":5724,"type":"VEC2"},{"bufferView":3,"componentType":5125,"count":5724,"type":"SCALAR"},{"bufferView":4,"componentType":5126,"count":9084,"max":[3.1500000953674316,1.867034673690796,1.8699992895126343],"min":[1.5990586280822754,-1.7287729978561401,-1.8693944215774536],"type":"VEC3"},{"bufferView":5,"componentType":5126,"count":9084,"type":"VEC3"},{"bufferView":6,"componentType":5126,"count":9084,"type":"VEC2"},{"bufferView":7,"componentType":5125,"count":9084,"type":"SCALAR"},{"bufferView":8,"componentType":5126,"count":27360,"max":[2.194999933242798,1.8700000047683716,1.8700000047683716],"min":[1.4449999332427979,-1.8700000047683716,-1.8700000047683716],"type":"VEC3"},{"bufferView":9,"componentType":5126,"count":27360,"type":"VEC3"},{"bufferView":10,"componentType":5126,"count":27360,"type":"VEC2"},{"bufferView":11,"componentType":5125,"count":27360,"type":"SCALAR"},{"bufferView":12,"componentType":5126,"count":129042,"max":[44.70000076293945,4.800000190734863,4.800000190734863],"min":[-1.997015715460293e-05,-4.800000190734863,-4.800000190734863],"type":"VEC3"},{"bufferView":13,"componentType":5126,"count":129042,"type":"VEC3"},{"bufferView":14,"componentType":5126,"count":129042,"type":"VEC2"},{"bufferView":15,"componentType":5125,"count":129042,"type":"SCALAR"},{"bufferView":16,"componentType":5126,"count":19830,"max":[17.27535629272461,2.3399999141693115,2.3399999141693115],"min":[-0.41464293003082275,-2.3399999141693115,-2.3399999141693115],"type":"VEC3"},{"bufferView":17,"componentType":5126,"count":19830,"type":"VEC3"},{"bufferView":18,"componentType":5126,"count":19830,"type":"VEC2"},{"bufferView":19,"componentType":5125,"count":19830,"type":"SCALAR"},{"bufferView":20,"componentType":5126,"count":48180,"max":[18.085325241088867,2.8474321365356445,2.8499999046325684],"min":[-0.7146429419517517,-2.8474321365356445,-2.8499999046325684],"type":"VEC3"},{"bufferView":21,"componentType":5126,"count":48180,"type":"VEC3"},{"bufferView":22,"componentType":5126,"count":48180,"type":"VEC2"},{"bufferView":23,"componentType":5125,"count":48180,"type":"SCALAR"},{"bufferView":24,"componentType":5126,"count":23934,"max":[32.71723175048828,4.301159381866455,4.301159381866455],"min":[4.550000190734863,-4.301159381866455,-4.301159381866455],"type":"VEC3"},{"bufferView":25,"componentType":5126,"count":23934,"type":"VEC3"},{"bufferView":26,"componentType":5126,"count":23934,"type":"VEC2"},{"bufferView":27,"componentType":5125,"count":23934,"type":"SCALAR"}],"asset":{"generator":"Keyshot Studio","version":"2.0"},"bufferViews":[{"buffer":0,"byteLength":68688,"byteOffset":0,"byteStride":12},{"buffer":0,"byteLength":68688,"byteOffset":68688,"byteStride":12},{"buffer":0,"byteLength":45792,"byteOffset":137376,"byteStride":8},{"buffer":0,"byteLength":22896,"byteOffset":183168},{"buffer":0,"byteLength":109008,"byteOffset":206064,"byteStride":12},{"buffer":0,"byteLength":109008,"byteOffset":315072,"byteStride":12},{"buffer":0,"byteLength":72672,"byteOffset":424080,"byteStride":8},{"buffer":0,"byteLength":36336,"byteOffset":496752},{"buffer":0,"byteLength":328320,"byteOffset":533088,"byteStride":12},{"buffer":0,"byteLength":328320,"byteOffset":861408,"byteStride":12},{"buffer":0,"byteLength":218880,"byteOffset":1189728,"byteStride":8},{"buffer":0,"byteLength":109440,"byteOffset":1408608},{"buffer":0,"byteLength":1548504,"byteOffset":1518048,"byteStride":12},{"buffer":0,"byteLength":1548504,"byteOffset":3066552,"byteStride":12},{"buffer":0,"byteLength":1032336,"byteOffset":4615056,"byteStride":8},{"buffer":0,"byteLength":516168,"byteOffset":5647392},{"buffer":0,"byteLength":237960,"byteOffset":6163560,"byteStride":12},{"buffer":0,"byteLength":237960,"byteOffset":6401520,"byteStride":12},{"buffer":0,"byteLength":158640,"byteOffset":6639480,"byteStride":8},{"buffer":0,"byteLength":79320,"byteOffset":6798120},{"buffer":0,"byteLength":578160,"byteOffset":6877440,"byteStride":12},{"buffer":0,"byteLength":578160,"byteOffset":7455600,"byteStride":12},{"buffer":0,"byteLength":385440,"byteOffset":8033760,"byteStride":8},{"buffer":0,"byteLength":192720,"byteOffset":8419200},{"buffer":0,"byteLength":287208,"byteOffset":8611920,"byteStride":12},{"buffer":0,"byteLength":287208,"byteOffset":8899128,"byteStride":12},{"buffer":0,"byteLength":191472,"byteOffset":9186336,"byteStride":8},{"buffer":0,"byteLength":95736,"byteOffset":9377808}],"buffers":[{"byteLength":9473544,"uri":"./223_Rem_resources/223_Rem.bin"}],"cameras":[{"name":"active","perspective":{"aspectRatio":1.0,"yfov":0.6911154697478635,"znear":0.17292875051498413},"type":"perspective"}],"images":[{"uri":"./223_Rem_resources/Scorpio_brass_#1_1950_occlusion.jpeg"},{"uri":"./223_Rem_resources/Scorpio_brass_#1_1950_normal.jpeg"},{"uri":"./223_Rem_resources/Scorpio_brass_#1_1962_occlusion.jpeg"},{"uri":"./223_Rem_resources/Scorpio_brass_#1_1962_normal.jpeg"},{"uri":"./223_Rem_resources/Scorpio_brass_#1_2001_occlusion.jpeg"},{"uri":"./223_Rem_resources/Scorpio_brass_#1_2001_normal.jpeg"},{"uri":"./223_Rem_resources/Scorpio_brass_#1_2010_occlusion.jpeg"},{"uri":"./223_Rem_resources/Scorpio_brass_#1_2010_normal.jpeg"},{"uri":"./223_Rem_resources/Copper_Rough_#1_2191_occlusion.jpeg"},{"uri":"./223_Rem_resources/Copper_Rough_#1_2204_occlusion.jpeg"},{"uri":"./223_Rem_resources/Střelný_prach_.223Rem_3,6g_(55gr)_M193_Nábojnice_po_soustruhu_color_128_128_128_#1_2351_occlusion.jpeg"}],"materials":[{"doubleSided":true,"name":"Scorpio_brass_#1_1950","normalTexture":{"index":1,"scale":1.0},"occlusionTexture":{"index":0},"pbrMetallicRoughness":{"baseColorFactor":[0.39698493480682373,0.31892168521881104,0.08473194390535355,1.0],"metallicFactor":1.0,"roughnessFactor":0.3162277638912201}},{"doubleSided":true,"name":"Scorpio_brass_#1_1962","normalTexture":{"index":3,"scale":1.0},"occlusionTexture":{"index":2},"pbrMetallicRoughness":{"baseColorFactor":[0.39698493480682373,0.31892168521881104,0.08473194390535355,1.0],"metallicFactor":1.0,"roughnessFactor":0.3162277638912201}},{"doubleSided":true,"name":"Scorpio_brass_#1_2001","normalTexture":{"index":5,"scale":1.0},"occlusionTexture":{"index":4},"pbrMetallicRoughness":{"baseColorFactor":[0.39698493480682373,0.31892168521881104,0.08473194390535355,1.0],"metallicFactor":1.0,"roughnessFactor":0.3162277638912201}},{"doubleSided":true,"name":"Scorpio_brass_#1_2010","normalTexture":{"index":7,"scale":1.0},"occlusionTexture":{"index":6},"pbrMetallicRoughness":{"baseColorFactor":[0.39698493480682373,0.31892168521881104,0.08473194390535355,1.0],"metallicFactor":1.0,"roughnessFactor":0.3162277638912201}},{"doubleSided":true,"name":"Copper_Rough_#1_2191","occlusionTexture":{"index":8},"pbrMetallicRoughness":{"baseColorFactor":[1.0,0.6110671758651733,0.4308300018310547,1.0],"metallicFactor":1.0,"roughnessFactor":0.3162277638912201}},{"doubleSided":true,"name":"Copper_Rough_#1_2204","occlusionTexture":{"index":9},"pbrMetallicRoughness":{"baseColorFactor":[1.0,0.6110671758651733,0.4308300018310547,1.0],"metallicFactor":1.0,"roughnessFactor":0.3162277638912201}},{"doubleSided":true,"name":"Střelný_prach_.223Rem_3,6g_(55gr)_M193_Nábojnice_po_soustruhu_color_128_128_128_#1_2351","occlusionTexture":{"index":10},"pbrMetallicRoughness":{"baseColorFactor":[0.5019609928131104,0.5019609928131104,0.5019609928131104,1.0],"metallicFactor":0.0,"roughnessFactor":1.0}}],"meshes":[{"name":"Nábojnice_223_Rem_se_zápalkou_Nábojnice po soustruhu","primitives":[{"attributes":{"NORMAL":1,"POSITION":0,"TEXCOORD_0":2},"indices":3,"material":0,"mode":4}]},{"name":"Nábojnice_223_Rem_se_zápalkou_Nábojnice po soustruhu","primitives":[{"attributes":{"NORMAL":5,"POSITION":4,"TEXCOORD_0":6},"indices":7,"material":1,"mode":4}]},{"name":"Nábojnice_223_Rem_se_zápalkou_Nábojnice po soustruhu","primitives":[{"attributes":{"NORMAL":9,"POSITION":8,"TEXCOORD_0":10},"indices":11,"material":2,"mode":4}]},{"name":"Nábojnice_223_Rem_se_zápalkou_Nábojnice po soustruhu","primitives":[{"attributes":{"NORMAL":13,"POSITION":12,"TEXCOORD_0":14},"indices":15,"material":3,"mode":4}]},{"name":"Střela_223_FMJ_55gr_(M193)","primitives":[{"attributes":{"NORMAL":17,"POSITION":16,"TEXCOORD_0":18},"indices":19,"material":4,"mode":4}]},{"name":"Střela_223_FMJ_55gr_(M193)","primitives":[{"attributes":{"NORMAL":21,"POSITION":20,"TEXCOORD_0":22},"indices":23,"material":5,"mode":4}]},{"name":"Střelný_prach_.223Rem_3,6g_(55gr)_M193_Nábojnice po soustruhu","primitives":[{"attributes":{"NORMAL":25,"POSITION":24,"TEXCOORD_0":26},"indices":27,"material":6,"mode":4}]}],"nodes":[{"camera":0,"matrix":[9.549406777587762e-06,-1.709927602150385e-10,0.0009999544598269852,0.0,0.000986531866433424,-0.00016329732820476566,-9.421251059689802e-06,0.0,0.000163289874792099,0.0009865767955780029,-1.559223746880889e-06,0.0,0.029966775894165038,0.18473661804199218,0.03614289855957031,1.0],"name":"active"},{"mesh":0,"name":"Nábojnice_223_Rem_se_zápalkou_Nábojnice po soustruhu"},{"mesh":1,"name":"Nábojnice_223_Rem_se_zápalkou_Nábojnice po soustruhu"},{"mesh":2,"name":"Nábojnice_223_Rem_se_zápalkou_Nábojnice po soustruhu"},{"mesh":3,"name":"Nábojnice_223_Rem_se_zápalkou_Nábojnice po soustruhu"},{"children":[1,2,3,4],"matrix":[1.0,0.0,0.0,0.0,0.0,1.0,0.0,0.0,0.0,0.0,1.0,0.0,-33.87620162963867,-1.8162599802017212,27.359699249267578,1.0],"name":"Nábojnice_223_Rem_se_zápalkou_Nábojnice po soustruhu"},{"mesh":4,"name":"Střela_223_FMJ_55gr_(M193)"},{"mesh":5,"name":"Střela_223_FMJ_55gr_(M193)"},{"children":[6,7],"matrix":[1.0,0.0,0.0,0.0,0.0,1.0,0.0,0.0,0.0,0.0,1.0,0.0,4.538400173187256,-1.8162599802017212,27.359699249267578,1.0],"name":"Střela_223_FMJ_55gr_(M193)"},{"mesh":6,"name":"Střelný_prach_.223Rem_3,6g_(55gr)_M193_Nábojnice po soustruhu"},{"children":[9],"matrix":[1.0,0.0,0.0,0.0,0.0,1.0,0.0,0.0,0.0,0.0,1.0,0.0,-33.87620162963867,-1.8162599802017212,27.359699249267578,1.0],"name":"Střelný_prach_.223Rem_3,6g_(55gr)_M193_Nábojnice po soustruhu"},{"children":[5,8,10],"matrix":[1.0,0.0,0.0,0.0,0.0,1.0,0.0,0.0,0.0,0.0,1.0,0.0,5.626247406005859,6.616260051727295,-5.773298066727264,1.0],"name":"Náboj_.223Rem_3,6g_(55gr)_M193"},{"children":[11],"name":"New Model Set 1"},{"name":"Default"},{"children":[12,13],"matrix":[0.001,0.0,0.0,0.0,0.0,0.001,0.0,0.0,0.0,0.0,0.001,0.0,0.0,0.0,0.0,1.0],"name":"lux_root"}],"samplers":[{"magFilter":9729,"minFilter":9987,"wrapS":10497,"wrapT":10497},{"magFilter":9729,"minFilter":9987,"wrapS":10497,"wrapT":10497},{"magFilter":9729,"minFilter":9987,"wrapS":10497,"wrapT":10497},{"magFilter":9729,"minFilter":9987,"wrapS":10497,"wrapT":10497},{"magFilter":9729,"minFilter":9987,"wrapS":10497,"wrapT":10497},{"magFilter":9729,"minFilter":9987,"wrapS":10497,"wrapT":10497},{"magFilter":9729,"minFilter":9987,"wrapS":10497,"wrapT":10497},{"magFilter":9729,"minFilter":9987,"wrapS":10497,"wrapT":10497},{"magFilter":9729,"minFilter":9987,"wrapS":10497,"wrapT":10497},{"magFilter":9729,"minFilter":9987,"wrapS":10497,"wrapT":10497},{"magFilter":9729,"minFilter":9987,"wrapS":10497,"wrapT":10497}],"scenes":[{"nodes":[0,14]}],"textures":[{"sampler":0,"source":0},{"sampler":1,"source":1},{"sampler":2,"source":2},{"sampler":3,"source":3},{"sampler":4,"source":4},{"sampler":5,"source":5},{"sampler":6,"source":6},{"sampler":7,"source":7},{"sampler":8,"source":8},{"sampler":9,"source":9},{"sampler":10,"source":10}]} 