<svg xmlns="http://www.w3.org/2000/svg" viewBox="0 0 841.89 595.28"><defs><style>.cls-1{fill:#0069b4;}.cls-2{fill:#878787;}.cls-3{fill:#fff;}</style></defs><title>STV_loga_facelift_v04-ALL COLORS final</title><g id="ZAKLADNI_loga" data-name="ZAKLADNI loga"><polygon class="cls-1" points="633.54 339.96 208.35 339.96 208.35 124.41 633.54 124.41 633.54 339.96 633.54 339.96"/><polygon class="cls-2" points="633.54 470.87 208.35 470.87 208.35 362.84 633.54 362.84 633.54 470.87 633.54 470.87"/><path class="cls-3" d="M301.4,291.5c-17.84,0-32.31-3.37-44.09-15.48l18.34-18.34c6.06,6.05,16.66,8.24,25.91,8.24,11.28,0,16.66-3.7,16.66-10.43a10.26,10.26,0,0,0-2.19-6.9c-1.51-1.52-4-2.53-7.74-3l-14.13-2c-10.26-1.51-18-4.88-23.22-10.26-5.38-5.56-8.08-13.46-8.08-23.39,0-21.2,16-36.85,42.57-36.85,16.66,0,29.11,4,39.21,14l-18,18c-7.41-7.4-17-6.9-22.05-6.9-10.09,0-14.13,5.72-14.13,10.77a7.54,7.54,0,0,0,2.35,5.38c1.35,1.52,3.87,3,7.91,3.54l14.14,1.85c10.43,1.51,18,4.71,22.88,9.59,6.23,6.06,8.58,14.81,8.58,25.57,0,23.73-20.36,36.69-44.92,36.69Z"/><polygon class="cls-3" points="428.6 199.62 428.6 290.49 400 290.49 400 199.62 371.39 199.62 371.39 174.05 457.04 174.05 457.04 199.62 428.6 199.62 428.6 199.62"/><polygon class="cls-3" points="546.05 290.49 524.85 290.49 486.31 174.05 515.93 174.05 535.62 239.16 554.8 174.05 584.58 174.05 546.05 290.49 546.05 290.49"/><path class="cls-3" d="M257.81,416.33c0-7.71.28-10.45,1.29-13.48,2.51-7.78,8.81-11.82,17.41-11.82,9.11,0,15,4.9,17,10.38a.8.8,0,0,1-.29,1l-6,2.66a.74.74,0,0,1-.93-.36c-2.15-3.89-5.09-6.05-9.82-6.05-4.94,0-7.81,2.45-9.17,6.41-.57,1.81-.86,4.26-.86,11.25s.29,9.44.86,11.24c1.36,4,4.23,6.42,9.17,6.42,4.3,0,8-2.17,9.25-6.13a20.41,20.41,0,0,0,.79-6.34.39.39,0,0,0-.43-.44h-8a.68.68,0,0,1-.72-.72V414.6a.68.68,0,0,1,.72-.72h16.13a.67.67,0,0,1,.71.72v4.25c0,4-.35,8.29-1.14,10.74-2.37,7.64-8.82,12-17.21,12-8.6,0-14.9-4-17.41-11.82C258.09,426.78,257.81,424,257.81,416.33Z"/><path class="cls-3" d="M359.15,440.83a1,1,0,0,1-1.07-.72L348.76,421h-8.38a.38.38,0,0,0-.43.43v18.67a.68.68,0,0,1-.72.72h-7a.68.68,0,0,1-.72-.72V392.54a.68.68,0,0,1,.72-.72h18.85c8.95,0,15.55,6,15.55,14.63a13.94,13.94,0,0,1-9.25,13.48l10.25,20a.57.57,0,0,1-.5.93Zm-.93-34.38c0-4.25-3-7-7.45-7H340.38a.38.38,0,0,0-.43.43v13.05a.38.38,0,0,0,.43.43h10.39C355.21,413.37,358.22,410.63,358.22,406.45Z"/><path class="cls-3" d="M402.8,429.81c-1-3-1.29-5.77-1.29-13.48s.29-10.45,1.29-13.48C405.31,395.07,411.62,391,420,391s14.76,4,17.27,11.82c1,3,1.29,5.77,1.29,13.48s-.29,10.45-1.29,13.48c-2.51,7.78-8.82,11.82-17.27,11.82S405.31,437.59,402.8,429.81Zm26.31-2.24c.57-1.8.86-4.32.86-11.24s-.29-9.44-.86-11.25c-1.36-4-4.23-6.41-9.1-6.41s-7.67,2.45-9,6.41c-.58,1.81-.87,4.26-.87,11.25s.29,9.44.87,11.24c1.36,4,4.22,6.42,9,6.42S427.75,431.53,429.11,427.57Z"/><path class="cls-3" d="M502.36,423.46V392.54a.68.68,0,0,1,.72-.72h7a.68.68,0,0,1,.72.72v31.07c0,11.38-7.67,18-18,18s-17.92-6.64-17.92-18V392.54a.68.68,0,0,1,.72-.72h7a.68.68,0,0,1,.72.72v30.92c0,6.78,3.94,10.53,9.46,10.53S502.36,430.24,502.36,423.46Z"/><path class="cls-3" d="M549.31,440.83a.68.68,0,0,1-.72-.72V392.54a.68.68,0,0,1,.72-.72h18.27c9.46,0,16.06,6.13,16.06,15.21s-6.6,15.28-16.06,15.28h-10.1a.38.38,0,0,0-.43.43v17.37a.68.68,0,0,1-.72.72ZM575.18,407c0-4.47-3.08-7.57-8.1-7.57h-9.6a.38.38,0,0,0-.43.43v14.28a.38.38,0,0,0,.43.43h9.6C572.1,414.6,575.18,411.57,575.18,407Z"/></g></svg>