{"accessors":[{"bufferView":0,"componentType":5126,"count":159228,"max":[46.0,46.0,428.1499938964844],"min":[-46.0,-46.0,0.005102263763546944],"type":"VEC3"},{"bufferView":1,"componentType":5126,"count":159228,"type":"VEC3"},{"bufferView":2,"componentType":5126,"count":159228,"type":"VEC2"},{"bufferView":3,"componentType":5125,"count":159228,"type":"SCALAR"},{"bufferView":4,"componentType":5126,"count":694656,"max":[501.6499938964844,60.84000015258789,60.84000015258789],"min":[0.0,-60.84000015258789,-60.84000015258789],"type":"VEC3"},{"bufferView":5,"componentType":5126,"count":694656,"type":"VEC3"},{"bufferView":6,"componentType":5126,"count":694656,"type":"VEC2"},{"bufferView":7,"componentType":5125,"count":694656,"type":"SCALAR"},{"bufferView":8,"componentType":5126,"count":49266,"max":[62.34938430786133,20.058319091796875,62.349998474121094],"min":[-62.34938430786133,-1.2264453172683716,-62.349998474121094],"type":"VEC3"},{"bufferView":9,"componentType":5126,"count":49266,"type":"VEC3"},{"bufferView":10,"componentType":5126,"count":49266,"type":"VEC2"},{"bufferView":11,"componentType":5125,"count":49266,"type":"SCALAR"},{"bufferView":12,"componentType":5126,"count":112356,"max":[19.978118896484375,19.99932861328125,-10.0],"min":[-20.0,-19.99932861328125,-116.80000305175781],"type":"VEC3"},{"bufferView":13,"componentType":5126,"count":112356,"type":"VEC3"},{"bufferView":14,"componentType":5126,"count":112356,"type":"VEC2"},{"bufferView":15,"componentType":5125,"count":112356,"type":"SCALAR"}],"asset":{"generator":"Keyshot Studio","version":"2.0"},"bufferViews":[{"buffer":0,"byteLength":1910736,"byteOffset":0,"byteStride":12},{"buffer":0,"byteLength":1910736,"byteOffset":1910736,"byteStride":12},{"buffer":0,"byteLength":1273824,"byteOffset":3821472,"byteStride":8},{"buffer":0,"byteLength":636912,"byteOffset":5095296},{"buffer":0,"byteLength":8335872,"byteOffset":5732208,"byteStride":12},{"buffer":0,"byteLength":8335872,"byteOffset":14068080,"byteStride":12},{"buffer":0,"byteLength":5557248,"byteOffset":22403952,"byteStride":8},{"buffer":0,"byteLength":2778624,"byteOffset":27961200},{"buffer":0,"byteLength":591192,"byteOffset":30739824,"byteStride":12},{"buffer":0,"byteLength":591192,"byteOffset":31331016,"byteStride":12},{"buffer":0,"byteLength":394128,"byteOffset":31922208,"byteStride":8},{"buffer":0,"byteLength":197064,"byteOffset":32316336},{"buffer":0,"byteLength":1348272,"byteOffset":32513400,"byteStride":12},{"buffer":0,"byteLength":1348272,"byteOffset":33861672,"byteStride":12},{"buffer":0,"byteLength":898848,"byteOffset":35209944,"byteStride":8},{"buffer":0,"byteLength":449424,"byteOffset":36108792}],"buffers":[{"byteLength":36558216,"uri":"./122_mm_HE_resources/122_mm_HE.bin"}],"cameras":[{"name":"active","perspective":{"aspectRatio":1.0,"yfov":0.6911154697478635,"znear":1.560598373413086},"type":"perspective"}],"extensionsUsed":["KHR_materials_specular"],"images":[{"uri":"./122_mm_HE_resources/S4-OF462-1018_color_178_178_178_0_occlusion.jpeg"},{"uri":"./122_mm_HE_resources/těla_kov_var_02_#1_8_color.jpeg"},{"uri":"./122_mm_HE_resources/těla_kov_var_02_#1_8_roughness_metalness.jpeg"},{"uri":"./122_mm_HE_resources/těla_kov_var_02_#1_8_specularColor.jpeg"},{"uri":"./122_mm_HE_resources/těla_kov_var_02_#1_8_occlusion.jpeg"},{"uri":"./122_mm_HE_resources/těla_kov_var_02_#1_1418_occlusion.jpeg"},{"uri":"./122_mm_HE_resources/Metal_Polished_White_#1_1427_occlusion.jpeg"}],"materials":[{"doubleSided":true,"name":"S4-OF462-1018_color_178_178_178_0","occlusionTexture":{"index":0},"pbrMetallicRoughness":{"baseColorFactor":[0.6980389952659607,0.6980389952659607,0.6980389952659607,1.0],"metallicFactor":0.0,"roughnessFactor":1.0}},{"doubleSided":true,"extensions":{"KHR_materials_specular":{"specularColorTexture":{"index":3},"specularFactor":1.0}},"name":"těla_kov_var_02_#1_8","occlusionTexture":{"index":4},"pbrMetallicRoughness":{"baseColorTexture":{"index":1},"metallicRoughnessTexture":{"index":2}}},{"doubleSided":true,"name":"těla_kov_var_02_#1_1418","occlusionTexture":{"index":5},"pbrMetallicRoughness":{"baseColorFactor":[0.07972319424152374,0.13016532361507416,0.04000000283122063,1.0],"metallicFactor":1.0,"roughnessFactor":0.3162277638912201}},{"doubleSided":true,"name":"Metal_Polished_White_#1_1427","occlusionTexture":{"index":6},"pbrMetallicRoughness":{"baseColorFactor":[1.0,1.0,1.0,1.0],"metallicFactor":1.0,"roughnessFactor":0.0}}],"meshes":[{"name":"S4-OF462-1018","primitives":[{"attributes":{"NORMAL":1,"POSITION":0,"TEXCOORD_0":2},"indices":3,"material":0,"mode":4}]},{"name":"S3-OF462-0807_ŠABLONACE","primitives":[{"attributes":{"NORMAL":5,"POSITION":4,"TEXCOORD_0":6},"indices":7,"material":1,"mode":4}]},{"name":"S3-OF462-0808","primitives":[{"attributes":{"NORMAL":9,"POSITION":8,"TEXCOORD_0":10},"indices":11,"material":2,"mode":4}]},{"name":"MAT00028389","primitives":[{"attributes":{"NORMAL":13,"POSITION":12,"TEXCOORD_0":14},"indices":15,"material":3,"mode":4}]}],"nodes":[{"camera":0,"matrix":[-0.0007015543183906587,-2.0686273960457414e-10,-0.0007126161146482853,0.0,-3.7913984197072894e-05,0.0009985836814307655,3.732516319003454e-05,0.0,0.0007116066813468933,5.320373550057411e-05,-0.0007005605697631836,0.0,1.2290218505859376,0.37138354492187503,-1.3412935791015625,1.0],"name":"active"},{"mesh":0,"name":"S4-OF462-1018"},{"children":[1],"matrix":[0.0,-4.440889980918258e-16,1.0,0.0,0.0,1.0,4.440889980918258e-16,0.0,-1.0,0.0,0.0,0.0,475.6499938964844,7.102950209746757e-15,3.1543399727479472e-30,1.0],"name":"S4-OF462-1018"},{"mesh":1,"name":"S3-OF462-0807_ŠABLONACE"},{"children":[3],"name":"S3-OF462-0807_ŠABLONACE"},{"mesh":2,"name":"S3-OF462-0808"},{"children":[5],"matrix":[0.0,-4.440889980918258e-16,-1.0,0.0,1.0,0.0,0.0,0.0,0.0,-1.0,4.440889980918258e-16,0.0,390.1499938964844,-1.401298464324817e-45,0.0,1.0],"name":"S3-OF462-0808"},{"children":[4,6],"name":"S3-OF462-0771_SE ŠABLONACÍ"},{"children":[2,7],"name":"S3-OF462-0706_SE ŠABLONACÍ"},{"mesh":3,"name":"MAT00028389"},{"children":[9],"matrix":[2.744159936179971e-17,-1.3877799388343032e-17,1.0,0.0,-4.509899955431495e-18,1.0,1.3877799388343032e-17,0.0,-1.0,-4.509899955431495e-18,2.744159936179971e-17,0.0,-70.0,-3.156929910899404e-16,1.9209099998710117e-15,1.0],"name":"MAT00028389"},{"children":[8,10],"matrix":[6.123233995736767e-17,-1.0,0.0,0.0,1.0,6.123233995736765e-17,0.0,0.0,0.0,0.0,1.0,0.0,-7.737449796692618e-14,501.6499938964842,0.0,1.0],"name":"122 HE PROJECTILE HE-462"},{"children":[11],"name":"New Model Set"},{"name":"Default"},{"children":[12,13],"matrix":[0.001,0.0,0.0,0.0,0.0,0.001,0.0,0.0,0.0,0.0,0.001,0.0,0.0,0.0,0.0,1.0],"name":"lux_root"}],"samplers":[{"magFilter":9729,"minFilter":9987,"wrapS":10497,"wrapT":10497},{"magFilter":9729,"minFilter":9987,"wrapS":10497,"wrapT":10497},{"magFilter":9729,"minFilter":9987,"wrapS":10497,"wrapT":10497},{"magFilter":9729,"minFilter":9987,"wrapS":10497,"wrapT":10497},{"magFilter":9729,"minFilter":9987,"wrapS":10497,"wrapT":10497},{"magFilter":9729,"minFilter":9987,"wrapS":10497,"wrapT":10497},{"magFilter":9729,"minFilter":9987,"wrapS":10497,"wrapT":10497}],"scenes":[{"nodes":[0,14]}],"textures":[{"sampler":0,"source":0},{"sampler":1,"source":1},{"sampler":2,"source":2},{"sampler":3,"source":3},{"sampler":4,"source":4},{"sampler":5,"source":5},{"sampler":6,"source":6}]}  