{"accessors":[{"bufferView":0,"componentType":5126,"count":70716,"max":[1711.0,18.997509002685547,19.0],"min":[0.0,-18.997509002685547,-19.0],"type":"VEC3"},{"bufferView":1,"componentType":5126,"count":70716,"type":"VEC3"},{"bufferView":2,"componentType":5126,"count":70716,"type":"VEC2"},{"bufferView":3,"componentType":5125,"count":70716,"type":"SCALAR"},{"bufferView":4,"componentType":5126,"count":2280,"max":[-11.5,18.197511672973633,18.200000762939453],"min":[-26.94115447998047,-18.197511672973633,-18.200000762939453],"type":"VEC3"},{"bufferView":5,"componentType":5126,"count":2280,"type":"VEC3"},{"bufferView":6,"componentType":5126,"count":2280,"type":"VEC2"},{"bufferView":7,"componentType":5125,"count":2280,"type":"SCALAR"},{"bufferView":8,"componentType":5126,"count":89619,"max":[0.0,25.200000762939453,25.200000762939453],"min":[-108.0,-25.200000762939453,-25.200000762939453],"type":"VEC3"},{"bufferView":9,"componentType":5126,"count":89619,"type":"VEC3"},{"bufferView":10,"componentType":5126,"count":89619,"type":"VEC2"},{"bufferView":11,"componentType":5125,"count":89619,"type":"SCALAR"},{"bufferView":12,"componentType":5126,"count":3816,"max":[18.25,18.24750518798828,1.5],"min":[-18.25,-18.24750518798828,0.0],"type":"VEC3"},{"bufferView":13,"componentType":5126,"count":3816,"type":"VEC3"},{"bufferView":14,"componentType":5126,"count":3816,"type":"VEC2"},{"bufferView":15,"componentType":5125,"count":3816,"type":"SCALAR"},{"bufferView":16,"componentType":5126,"count":42972,"max":[23.998600006103516,25.200000762939453,46.82776641845703],"min":[-24.048351287841797,-1.4210854715202004e-14,-1.0],"type":"VEC3"},{"bufferView":17,"componentType":5126,"count":42972,"type":"VEC3"},{"bufferView":18,"componentType":5126,"count":42972,"type":"VEC2"},{"bufferView":19,"componentType":5125,"count":42972,"type":"SCALAR"},{"bufferView":20,"componentType":5126,"count":7656,"max":[16.0,15.99750804901123,37.0],"min":[-16.0,-15.99750804901123,0.0],"type":"VEC3"},{"bufferView":21,"componentType":5126,"count":7656,"type":"VEC3"},{"bufferView":22,"componentType":5126,"count":7656,"type":"VEC2"},{"bufferView":23,"componentType":5125,"count":7656,"type":"SCALAR"},{"bufferView":24,"componentType":5126,"count":1140,"max":[18.200000762939453,18.197511672973633,18.700000762939453],"min":[-18.200000762939453,-18.197511672973633,7.5856404304504395],"type":"VEC3"},{"bufferView":25,"componentType":5126,"count":1140,"type":"VEC3"},{"bufferView":26,"componentType":5126,"count":1140,"type":"VEC2"},{"bufferView":27,"componentType":5125,"count":1140,"type":"SCALAR"},{"bufferView":28,"componentType":5126,"count":26169,"max":[20.75,20.75,19.700000762939453],"min":[-20.75,-20.75,-2.220446049250313e-15],"type":"VEC3"},{"bufferView":29,"componentType":5126,"count":26169,"type":"VEC3"},{"bufferView":30,"componentType":5126,"count":26169,"type":"VEC2"},{"bufferView":31,"componentType":5125,"count":26169,"type":"SCALAR"},{"bufferView":32,"componentType":5126,"count":20208,"max":[2.1094237467877974e-15,6.4993720054626465,6.5],"min":[-40.5,-6.4993720054626465,-6.5],"type":"VEC3"},{"bufferView":33,"componentType":5126,"count":20208,"type":"VEC3"},{"bufferView":34,"componentType":5126,"count":20208,"type":"VEC2"},{"bufferView":35,"componentType":5125,"count":20208,"type":"SCALAR"},{"bufferView":36,"componentType":5126,"count":19206,"max":[15.0,14.999382019042969,55.0],"min":[-15.0,-14.999382019042969,0.0],"type":"VEC3"},{"bufferView":37,"componentType":5126,"count":19206,"type":"VEC3"},{"bufferView":38,"componentType":5126,"count":19206,"type":"VEC2"},{"bufferView":39,"componentType":5125,"count":19206,"type":"SCALAR"},{"bufferView":40,"componentType":5126,"count":13554,"max":[1668.0,20.782257080078125,20.782257080078125],"min":[-1.1013412404281553e-13,-20.782257080078125,-20.782257080078125],"type":"VEC3"},{"bufferView":41,"componentType":5126,"count":13554,"type":"VEC3"},{"bufferView":42,"componentType":5126,"count":13554,"type":"VEC2"},{"bufferView":43,"componentType":5125,"count":13554,"type":"SCALAR"},{"bufferView":44,"componentType":5126,"count":99789,"max":[1668.0,21.0,21.0],"min":[0.0,-21.0,-21.0],"type":"VEC3"},{"bufferView":45,"componentType":5126,"count":99789,"type":"VEC3"},{"bufferView":46,"componentType":5126,"count":99789,"type":"VEC2"},{"bufferView":47,"componentType":5125,"count":99789,"type":"SCALAR"},{"bufferView":48,"componentType":5126,"count":28398,"max":[947.556640625,14.71861743927002,20.82113265991211],"min":[734.8225708007813,-16.515810012817383,13.065299987792969],"type":"VEC3"},{"bufferView":49,"componentType":5126,"count":28398,"type":"VEC3"},{"bufferView":50,"componentType":5126,"count":28398,"type":"VEC2"},{"bufferView":51,"componentType":5125,"count":28398,"type":"SCALAR"},{"bufferView":52,"componentType":5126,"count":59814,"max":[0.0,20.757543563842773,20.757543563842773],"min":[-70.0,-20.757543563842773,-20.757543563842773],"type":"VEC3"},{"bufferView":53,"componentType":5126,"count":59814,"type":"VEC3"},{"bufferView":54,"componentType":5126,"count":59814,"type":"VEC2"},{"bufferView":55,"componentType":5125,"count":59814,"type":"SCALAR"},{"bufferView":56,"componentType":5126,"count":59820,"max":[0.0,20.757543563842773,20.757543563842773],"min":[-70.0,-20.757543563842773,-20.757543563842773],"type":"VEC3"},{"bufferView":57,"componentType":5126,"count":59820,"type":"VEC3"},{"bufferView":58,"componentType":5126,"count":59820,"type":"VEC2"},{"bufferView":59,"componentType":5125,"count":59820,"type":"SCALAR"}],"asset":{"generator":"Keyshot Studio","version":"2.0"},"bufferViews":[{"buffer":0,"byteLength":848592,"byteOffset":0,"byteStride":12},{"buffer":0,"byteLength":848592,"byteOffset":848592,"byteStride":12},{"buffer":0,"byteLength":565728,"byteOffset":1697184,"byteStride":8},{"buffer":0,"byteLength":282864,"byteOffset":2262912},{"buffer":0,"byteLength":27360,"byteOffset":2545776,"byteStride":12},{"buffer":0,"byteLength":27360,"byteOffset":2573136,"byteStride":12},{"buffer":0,"byteLength":18240,"byteOffset":2600496,"byteStride":8},{"buffer":0,"byteLength":9120,"byteOffset":2618736},{"buffer":0,"byteLength":1075428,"byteOffset":2627856,"byteStride":12},{"buffer":0,"byteLength":1075428,"byteOffset":3703284,"byteStride":12},{"buffer":0,"byteLength":716952,"byteOffset":4778712,"byteStride":8},{"buffer":0,"byteLength":358476,"byteOffset":5495664},{"buffer":0,"byteLength":45792,"byteOffset":5854140,"byteStride":12},{"buffer":0,"byteLength":45792,"byteOffset":5899932,"byteStride":12},{"buffer":0,"byteLength":30528,"byteOffset":5945724,"byteStride":8},{"buffer":0,"byteLength":15264,"byteOffset":5976252},{"buffer":0,"byteLength":515664,"byteOffset":5991516,"byteStride":12},{"buffer":0,"byteLength":515664,"byteOffset":6507180,"byteStride":12},{"buffer":0,"byteLength":343776,"byteOffset":7022844,"byteStride":8},{"buffer":0,"byteLength":171888,"byteOffset":7366620},{"buffer":0,"byteLength":91872,"byteOffset":7538508,"byteStride":12},{"buffer":0,"byteLength":91872,"byteOffset":7630380,"byteStride":12},{"buffer":0,"byteLength":61248,"byteOffset":7722252,"byteStride":8},{"buffer":0,"byteLength":30624,"byteOffset":7783500},{"buffer":0,"byteLength":13680,"byteOffset":7814124,"byteStride":12},{"buffer":0,"byteLength":13680,"byteOffset":7827804,"byteStride":12},{"buffer":0,"byteLength":9120,"byteOffset":7841484,"byteStride":8},{"buffer":0,"byteLength":4560,"byteOffset":7850604},{"buffer":0,"byteLength":314028,"byteOffset":7855164,"byteStride":12},{"buffer":0,"byteLength":314028,"byteOffset":8169192,"byteStride":12},{"buffer":0,"byteLength":209352,"byteOffset":8483220,"byteStride":8},{"buffer":0,"byteLength":104676,"byteOffset":8692572},{"buffer":0,"byteLength":242496,"byteOffset":8797248,"byteStride":12},{"buffer":0,"byteLength":242496,"byteOffset":9039744,"byteStride":12},{"buffer":0,"byteLength":161664,"byteOffset":9282240,"byteStride":8},{"buffer":0,"byteLength":80832,"byteOffset":9443904},{"buffer":0,"byteLength":230472,"byteOffset":9524736,"byteStride":12},{"buffer":0,"byteLength":230472,"byteOffset":9755208,"byteStride":12},{"buffer":0,"byteLength":153648,"byteOffset":9985680,"byteStride":8},{"buffer":0,"byteLength":76824,"byteOffset":10139328},{"buffer":0,"byteLength":162648,"byteOffset":10216152,"byteStride":12},{"buffer":0,"byteLength":162648,"byteOffset":10378800,"byteStride":12},{"buffer":0,"byteLength":108432,"byteOffset":10541448,"byteStride":8},{"buffer":0,"byteLength":54216,"byteOffset":10649880},{"buffer":0,"byteLength":1197468,"byteOffset":10704096,"byteStride":12},{"buffer":0,"byteLength":1197468,"byteOffset":11901564,"byteStride":12},{"buffer":0,"byteLength":798312,"byteOffset":13099032,"byteStride":8},{"buffer":0,"byteLength":399156,"byteOffset":13897344},{"buffer":0,"byteLength":340776,"byteOffset":14296500,"byteStride":12},{"buffer":0,"byteLength":340776,"byteOffset":14637276,"byteStride":12},{"buffer":0,"byteLength":227184,"byteOffset":14978052,"byteStride":8},{"buffer":0,"byteLength":113592,"byteOffset":15205236},{"buffer":0,"byteLength":717768,"byteOffset":15318828,"byteStride":12},{"buffer":0,"byteLength":717768,"byteOffset":16036596,"byteStride":12},{"buffer":0,"byteLength":478512,"byteOffset":16754364,"byteStride":8},{"buffer":0,"byteLength":239256,"byteOffset":17232876},{"buffer":0,"byteLength":717840,"byteOffset":17472132,"byteStride":12},{"buffer":0,"byteLength":717840,"byteOffset":18189972,"byteStride":12},{"buffer":0,"byteLength":478560,"byteOffset":18907812,"byteStride":8},{"buffer":0,"byteLength":239280,"byteOffset":19386372}],"buffers":[{"byteLength":19625652,"uri":"./Bangalore_torpedo_4x6ft_resources/Bangalore_torpedo_4x6ft.bin"}],"images":[{"uri":"./Bangalore_torpedo_4x6ft_resources/MATV3040764_BANGALORE_color_202_209_238_7709_occlusion.jpeg"},{"uri":"./Bangalore_torpedo_4x6ft_resources/S3-BA-0432_color_135_140_140__#2_7719_occlusion.jpeg"},{"uri":"./Bangalore_torpedo_4x6ft_resources/těla_kov_var_02_#1_7721_occlusion.jpeg"},{"uri":"./Bangalore_torpedo_4x6ft_resources/S4-BA-0827_189-213-0235_color_29_29_29__#2_7770_occlusion.jpeg"},{"uri":"./Bangalore_torpedo_4x6ft_resources/těla_kov_var_02_#1_7775_occlusion.jpeg"},{"uri":"./Bangalore_torpedo_4x6ft_resources/S4-BA-0929_color_178_178_178__#2_7854_occlusion.jpeg"},{"uri":"./Bangalore_torpedo_4x6ft_resources/S4-BA-0826_color_135_140_140__#2_7858_occlusion.jpeg"},{"uri":"./Bangalore_torpedo_4x6ft_resources/těla_kov_var_02_#1_7860_occlusion.jpeg"},{"uri":"./Bangalore_torpedo_4x6ft_resources/S4-BA-0825_575-002-0003_color_137_89_86_7876_occlusion.jpeg"},{"uri":"./Bangalore_torpedo_4x6ft_resources/S4-NR50-0535_color_178_178_178__#2_7887_occlusion.jpeg"},{"uri":"./Bangalore_torpedo_4x6ft_resources/těla_kov_var_02_#1_7893_occlusion.jpeg"},{"uri":"./Bangalore_torpedo_4x6ft_resources/těla_kov_var_02_#1_7900_occlusion.jpeg"},{"uri":"./Bangalore_torpedo_4x6ft_resources/S4-BA-0816_šablonace_inert_color_255_255_0_7907_occlusion.jpeg"},{"uri":"./Bangalore_torpedo_4x6ft_resources/těla_kov_var_02_#1_8359_occlusion.jpeg"},{"uri":"./Bangalore_torpedo_4x6ft_resources/těla_kov_var_02_#1_8382_occlusion.jpeg"}],"materials":[{"doubleSided":true,"name":"MATV3040764_BANGALORE_color_202_209_238_7709","occlusionTexture":{"index":0},"pbrMetallicRoughness":{"baseColorFactor":[0.792156994342804,0.8196079730987549,0.9333329796791077,1.0],"metallicFactor":0.0,"roughnessFactor":1.0}},{"doubleSided":true,"name":"S3-BA-0432_color_135_140_140__#2_7719","occlusionTexture":{"index":1},"pbrMetallicRoughness":{"baseColorFactor":[0.5294119715690613,0.549019992351532,0.549019992351532,1.0],"metallicFactor":0.0,"roughnessFactor":1.0}},{"doubleSided":true,"name":"těla_kov_var_02_#1_7721","occlusionTexture":{"index":2},"pbrMetallicRoughness":{"baseColorFactor":[0.07972319424152374,0.13016532361507416,0.04000000283122063,1.0],"metallicFactor":1.0,"roughnessFactor":0.3162277638912201}},{"doubleSided":true,"name":"S4-BA-0827_189-213-0235_color_29_29_29__#2_7770","occlusionTexture":{"index":3},"pbrMetallicRoughness":{"baseColorFactor":[0.11372499912977219,0.11372499912977219,0.11372499912977219,1.0],"metallicFactor":0.0,"roughnessFactor":1.0}},{"doubleSided":true,"name":"těla_kov_var_02_#1_7775","occlusionTexture":{"index":4},"pbrMetallicRoughness":{"baseColorFactor":[0.07972319424152374,0.13016532361507416,0.04000000283122063,1.0],"metallicFactor":1.0,"roughnessFactor":0.3162277638912201}},{"doubleSided":true,"name":"S4-BA-0929_color_178_178_178__#2_7854","occlusionTexture":{"index":5},"pbrMetallicRoughness":{"baseColorFactor":[0.6980389952659607,0.6980389952659607,0.6980389952659607,1.0],"metallicFactor":0.0,"roughnessFactor":1.0}},{"doubleSided":true,"name":"S4-BA-0826_color_135_140_140__#2_7858","occlusionTexture":{"index":6},"pbrMetallicRoughness":{"baseColorFactor":[0.5294119715690613,0.549019992351532,0.549019992351532,1.0],"metallicFactor":0.0,"roughnessFactor":1.0}},{"doubleSided":true,"name":"těla_kov_var_02_#1_7860","occlusionTexture":{"index":7},"pbrMetallicRoughness":{"baseColorFactor":[0.07972319424152374,0.13016532361507416,0.04000000283122063,1.0],"metallicFactor":1.0,"roughnessFactor":0.3162277638912201}},{"doubleSided":true,"name":"S4-BA-0825_575-002-0003_color_137_89_86_7876","occlusionTexture":{"index":8},"pbrMetallicRoughness":{"baseColorFactor":[0.5372549891471863,0.34902000427246094,0.33725500106811523,1.0],"metallicFactor":0.0,"roughnessFactor":1.0}},{"doubleSided":true,"name":"S4-NR50-0535_color_178_178_178__#2_7887","occlusionTexture":{"index":9},"pbrMetallicRoughness":{"baseColorFactor":[0.6980389952659607,0.6980389952659607,0.6980389952659607,1.0],"metallicFactor":0.0,"roughnessFactor":1.0}},{"doubleSided":true,"name":"těla_kov_var_02_#1_7893","occlusionTexture":{"index":10},"pbrMetallicRoughness":{"baseColorFactor":[0.07972319424152374,0.13016532361507416,0.04000000283122063,1.0],"metallicFactor":1.0,"roughnessFactor":0.3162277638912201}},{"doubleSided":true,"name":"těla_kov_var_02_#1_7900","occlusionTexture":{"index":11},"pbrMetallicRoughness":{"baseColorFactor":[0.07972319424152374,0.13016532361507416,0.04000000283122063,1.0],"metallicFactor":1.0,"roughnessFactor":0.3162277638912201}},{"doubleSided":true,"name":"S4-BA-0816_šablonace_inert_color_255_255_0_7907","occlusionTexture":{"index":12},"pbrMetallicRoughness":{"baseColorFactor":[1.0,1.0,0.0,1.0],"metallicFactor":0.0,"roughnessFactor":1.0}},{"doubleSided":true,"name":"těla_kov_var_02_#1_8359","occlusionTexture":{"index":13},"pbrMetallicRoughness":{"baseColorFactor":[0.07972319424152374,0.13016532361507416,0.04000000283122063,1.0],"metallicFactor":1.0,"roughnessFactor":0.3162277638912201}},{"doubleSided":true,"name":"těla_kov_var_02_#1_8382","occlusionTexture":{"index":14},"pbrMetallicRoughness":{"baseColorFactor":[0.07972319424152374,0.13016532361507416,0.04000000283122063,1.0],"metallicFactor":1.0,"roughnessFactor":0.3162277638912201}}],"meshes":[{"name":"MATV3040764_BANGALORE","primitives":[{"attributes":{"NORMAL":1,"POSITION":0,"TEXCOORD_0":2},"indices":3,"material":0,"mode":4}]},{"name":"S3-BA-0432","primitives":[{"attributes":{"NORMAL":5,"POSITION":4,"TEXCOORD_0":6},"indices":7,"material":1,"mode":4}]},{"name":"S3-BA-0432","primitives":[{"attributes":{"NORMAL":9,"POSITION":8,"TEXCOORD_0":10},"indices":11,"material":2,"mode":4}]},{"name":"S4-BA-0827_189-213-0235","primitives":[{"attributes":{"NORMAL":13,"POSITION":12,"TEXCOORD_0":14},"indices":15,"material":3,"mode":4}]},{"name":"S4-BA-0829","primitives":[{"attributes":{"NORMAL":17,"POSITION":16,"TEXCOORD_0":18},"indices":19,"material":4,"mode":4}]},{"name":"S4-BA-0929","primitives":[{"attributes":{"NORMAL":21,"POSITION":20,"TEXCOORD_0":22},"indices":23,"material":5,"mode":4}]},{"name":"S4-BA-0826","primitives":[{"attributes":{"NORMAL":25,"POSITION":24,"TEXCOORD_0":26},"indices":27,"material":6,"mode":4}]},{"name":"S4-BA-0826","primitives":[{"attributes":{"NORMAL":29,"POSITION":28,"TEXCOORD_0":30},"indices":31,"material":7,"mode":4}]},{"name":"S4-BA-0827_189-213-0235","primitives":[{"attributes":{"NORMAL":13,"POSITION":12,"TEXCOORD_0":14},"indices":15,"material":3,"mode":4}]},{"name":"S4-BA-0825_575-002-0003","primitives":[{"attributes":{"NORMAL":33,"POSITION":32,"TEXCOORD_0":34},"indices":35,"material":8,"mode":4}]},{"name":"S4-NR50-0535","primitives":[{"attributes":{"NORMAL":37,"POSITION":36,"TEXCOORD_0":38},"indices":39,"material":9,"mode":4}]},{"name":"S4-BA-0816_šablonace inert","primitives":[{"attributes":{"NORMAL":41,"POSITION":40,"TEXCOORD_0":42},"indices":43,"material":10,"mode":4}]},{"name":"S4-BA-0816_šablonace inert","primitives":[{"attributes":{"NORMAL":45,"POSITION":44,"TEXCOORD_0":46},"indices":47,"material":11,"mode":4}]},{"name":"S4-BA-0816_šablonace inert","primitives":[{"attributes":{"NORMAL":49,"POSITION":48,"TEXCOORD_0":50},"indices":51,"material":12,"mode":4}]},{"name":"S4-BA-0820","primitives":[{"attributes":{"NORMAL":53,"POSITION":52,"TEXCOORD_0":54},"indices":55,"material":13,"mode":4}]},{"name":"S4-BA-0820","primitives":[{"attributes":{"NORMAL":57,"POSITION":56,"TEXCOORD_0":58},"indices":59,"material":14,"mode":4}]}],"nodes":[{"mesh":0,"name":"MATV3040764_BANGALORE"},{"children":[0],"matrix":[-1.0,-3.0031199111599046e-17,2.7755598776686065e-17,0.0,-3.0031199111599046e-17,1.0,-4.440889980918258e-16,0.0,-2.7755598776686065e-17,-4.440889980918258e-16,-1.0,0.0,0.0,0.0,0.0,1.0],"name":"MATV3040764_BANGALORE"},{"children":[1],"matrix":[-1.0,0.0,0.0,0.0,0.0,1.6653300370752025e-16,-1.0,0.0,0.0,-1.0,-1.6653300370752025e-16,0.0,-3.0,0.0,0.0,1.0],"name":"S4-BA-0932"},{"mesh":1,"name":"S3-BA-0432"},{"mesh":2,"name":"S3-BA-0432"},{"children":[3,4],"name":"S3-BA-0432"},{"mesh":3,"name":"S4-BA-0827_189-213-0235"},{"children":[6],"matrix":[0.0,0.6947950124740601,0.7192080020904541,0.0,0.0,0.7192080020904541,-0.6947950124740601,0.0,-1.0,0.0,0.0,0.0,-28.5,1.5182999934479921e-15,1.2003999521348623e-15,1.0],"name":"S4-BA-0827_189-213-0235"},{"mesh":4,"name":"S4-BA-0829"},{"children":[8],"matrix":[-1.2207999995156532e-16,-0.4532490074634552,-0.8913840055465698,0.0,1.0,-5.5332801165024044e-17,-1.0881999694731977e-16,0.0,0.0,-0.8913840055465698,0.4532490074634552,0.0,-69.4000015258789,20.47920036315918,-10.469300270080566,1.0],"name":"S4-BA-0829"},{"children":[5,7,9],"name":"S3-BA-0449"},{"mesh":5,"name":"S4-BA-0929"},{"children":[11],"matrix":[0.0,-1.0,0.0,0.0,0.0,0.0,1.0,0.0,-1.0,0.0,0.0,0.0,8.5,0.0,0.0,1.0],"name":"S4-BA-0929"},{"children":[10,12],"matrix":[1.0,0.0,0.0,0.0,0.0,0.0,-1.0,0.0,0.0,1.0,0.0,0.0,-11.5,-1.8342000076219485e-30,3.9530799205723656e-30,1.0],"name":"S4-BA-0930"},{"mesh":6,"name":"S4-BA-0826"},{"mesh":7,"name":"S4-BA-0826"},{"children":[14,15],"name":"S4-BA-0826"},{"mesh":8,"name":"S4-BA-0827_189-213-0235"},{"children":[17],"matrix":[1.0,0.0,0.0,0.0,0.0,1.0,0.0,0.0,0.0,0.0,1.0,0.0,0.0,0.0,4.699999809265137,1.0],"name":"S4-BA-0827_189-213-0235"},{"mesh":9,"name":"S4-BA-0825_575-002-0003"},{"children":[19],"matrix":[0.0,0.0,-1.0,0.0,0.0,1.0,0.0,0.0,1.0,0.0,0.0,0.0,0.0,0.0,0.0,1.0],"name":"S4-BA-0825_575-002-0003"},{"children":[16,18,20],"name":"S3-BA-0448"},{"mesh":10,"name":"S4-NR50-0535"},{"children":[22],"matrix":[1.0,2.2204500197172533e-16,0.0,0.0,2.2204500197172533e-16,-1.0,0.0,0.0,0.0,0.0,-1.0,0.0,1.5308399564266301e-33,6.018529974184158e-33,61.20000076293945,1.0],"name":"S4-NR50-0535"},{"children":[21,23],"matrix":[0.0,0.0,-1.0,0.0,0.0,-1.0,0.0,0.0,-1.0,0.0,0.0,0.0,1714.199951171875,0.0,0.0,1.0],"name":"S4-BA-0931"},{"mesh":11,"name":"S4-BA-0816_šablonace inert"},{"mesh":12,"name":"S4-BA-0816_šablonace inert"},{"mesh":13,"name":"S4-BA-0816_šablonace inert"},{"children":[25,26,27],"name":"S4-BA-0816_šablonace inert"},{"mesh":14,"name":"S4-BA-0820"},{"children":[29],"matrix":[-1.0,0.0,0.0,0.0,0.0,1.0,1.1102199806005023e-16,0.0,0.0,1.1102199806005023e-16,-1.0,0.0,-40.0,0.0,0.0,1.0],"name":"S4-BA-0820"},{"mesh":15,"name":"S4-BA-0820"},{"children":[31],"matrix":[1.0,0.0,0.0,0.0,0.0,1.0,0.0,0.0,0.0,0.0,1.0,0.0,1708.0,3.409239960616413e-29,-4.3316198712772693e-29,1.0],"name":"S4-BA-0820"},{"children":[28,30,32],"name":"S3-BA-0446_šablonace"},{"children":[2,13,24,33],"matrix":[1.0,0.0,0.0,0.0,0.0,1.0,0.0,0.0,0.0,0.0,1.0,0.0,-797.3499755859375,25.200000762939453,0.0,1.0],"name":"Bangalore_Torpedo_4x6ft"},{"children":[34],"name":"New Model Set 2"},{"name":"Default"},{"children":[35,36],"matrix":[0.001,0.0,0.0,0.0,0.0,0.001,0.0,0.0,0.0,0.0,0.001,0.0,0.0,0.0,0.0,1.0],"name":"lux_root"}],"samplers":[{"magFilter":9729,"minFilter":9987,"wrapS":10497,"wrapT":10497},{"magFilter":9729,"minFilter":9987,"wrapS":10497,"wrapT":10497},{"magFilter":9729,"minFilter":9987,"wrapS":10497,"wrapT":10497},{"magFilter":9729,"minFilter":9987,"wrapS":10497,"wrapT":10497},{"magFilter":9729,"minFilter":9987,"wrapS":10497,"wrapT":10497},{"magFilter":9729,"minFilter":9987,"wrapS":10497,"wrapT":10497},{"magFilter":9729,"minFilter":9987,"wrapS":10497,"wrapT":10497},{"magFilter":9729,"minFilter":9987,"wrapS":10497,"wrapT":10497},{"magFilter":9729,"minFilter":9987,"wrapS":10497,"wrapT":10497},{"magFilter":9729,"minFilter":9987,"wrapS":10497,"wrapT":10497},{"magFilter":9729,"minFilter":9987,"wrapS":10497,"wrapT":10497},{"magFilter":9729,"minFilter":9987,"wrapS":10497,"wrapT":10497},{"magFilter":9729,"minFilter":9987,"wrapS":10497,"wrapT":10497},{"magFilter":9729,"minFilter":9987,"wrapS":10497,"wrapT":10497},{"magFilter":9729,"minFilter":9987,"wrapS":10497,"wrapT":10497}],"scenes":[{"nodes":[37]}],"textures":[{"sampler":0,"source":0},{"sampler":1,"source":1},{"sampler":2,"source":2},{"sampler":3,"source":3},{"sampler":4,"source":4},{"sampler":5,"source":5},{"sampler":6,"source":6},{"sampler":7,"source":7},{"sampler":8,"source":8},{"sampler":9,"source":9},{"sampler":10,"source":10},{"sampler":11,"source":11},{"sampler":12,"source":12},{"sampler":13,"source":13},{"sampler":14,"source":14}]}