<svg xmlns="http://www.w3.org/2000/svg" viewBox="210 22 421 421">
  <rect x="210" y="22" width="421" height="421" rx="74" fill="#0069b4"/>
  <path fill="#fff" d="M301.4,291.5c-17.84,0-32.31-3.37-44.09-15.48l18.34-18.34c6.06,6.05,16.66,8.24,25.91,8.24,11.28,0,16.66-3.7,16.66-10.43a10.26,10.26,0,0,0-2.19-6.9c-1.51-1.52-4-2.53-7.74-3l-14.13-2c-10.26-1.51-18-4.88-23.22-10.26-5.38-5.56-8.08-13.46-8.08-23.39,0-21.2,16-36.85,42.57-36.85,16.66,0,29.11,4,39.21,14l-18,18c-7.41-7.4-17-6.9-22.05-6.9-10.09,0-14.13,5.72-14.13,10.77a7.54,7.54,0,0,0,2.35,5.38c1.35,1.52,3.87,3,7.91,3.54l14.14,1.85c10.43,1.51,18,4.71,22.88,9.59,6.23,6.06,8.58,14.81,8.58,25.57,0,23.73-20.36,36.69-44.92,36.69Z"/>
  <polygon fill="#fff" points="428.6 199.62 428.6 290.49 400 290.49 400 199.62 371.39 199.62 371.39 174.05 457.04 174.05 457.04 199.62 428.6 199.62 428.6 199.62"/>
  <polygon fill="#fff" points="546.05 290.49 524.85 290.49 486.31 174.05 515.93 174.05 535.62 239.16 554.8 174.05 584.58 174.05 546.05 290.49 546.05 290.49"/>
</svg>
