{"accessors":[{"bufferView":0,"componentType":5126,"count":25440,"max":[3.426048517227173,21.86537742614746,3.426048517227173],"min":[-3.426048517227173,1.5050333738327026,-3.426048517227173],"type":"VEC3"},{"bufferView":1,"componentType":5126,"count":25440,"type":"VEC3"},{"bufferView":2,"componentType":5126,"count":25440,"type":"VEC2"},{"bufferView":3,"componentType":5125,"count":25440,"type":"SCALAR"},{"bufferView":4,"componentType":5126,"count":76110,"max":[3.9549999237060547,22.4999942779541,3.9549999237060547],"min":[-3.9549999237060547,6.88162082873589e-10,-3.9549999237060547],"type":"VEC3"},{"bufferView":5,"componentType":5126,"count":76110,"type":"VEC3"},{"bufferView":6,"componentType":5126,"count":76110,"type":"VEC2"},{"bufferView":7,"componentType":5125,"count":76110,"type":"SCALAR"},{"bufferView":8,"componentType":5126,"count":6264,"max":[2.9000000953674316,2.6500000953674316,2.6500000953674316],"min":[0.0,-2.6500000953674316,-2.6500000953674316],"type":"VEC3"},{"bufferView":9,"componentType":5126,"count":6264,"type":"VEC3"},{"bufferView":10,"componentType":5126,"count":6264,"type":"VEC2"},{"bufferView":11,"componentType":5125,"count":6264,"type":"SCALAR"},{"bufferView":12,"componentType":5126,"count":16968,"max":[3.200000047683716,2.25,2.25],"min":[1.6492326259613037,-2.2474515438079834,-2.25],"type":"VEC3"},{"bufferView":13,"componentType":5126,"count":16968,"type":"VEC3"},{"bufferView":14,"componentType":5126,"count":16968,"type":"VEC2"},{"bufferView":15,"componentType":5125,"count":16968,"type":"SCALAR"},{"bufferView":16,"componentType":5126,"count":28512,"max":[2.244999885559082,2.2474515438079834,2.25],"min":[1.4950000047683716,-2.2474515438079834,-2.25],"type":"VEC3"},{"bufferView":17,"componentType":5126,"count":28512,"type":"VEC3"},{"bufferView":18,"componentType":5126,"count":28512,"type":"VEC2"},{"bufferView":19,"componentType":5125,"count":28512,"type":"SCALAR"},{"bufferView":20,"componentType":5126,"count":91590,"max":[4.73785400390625,23.559078216552734,4.73785400390625],"min":[-4.73785400390625,-3.3306690738754696e-16,-4.73785400390625],"type":"VEC3"},{"bufferView":21,"componentType":5126,"count":91590,"type":"VEC3"},{"bufferView":22,"componentType":5126,"count":91590,"type":"VEC2"},{"bufferView":23,"componentType":5125,"count":91590,"type":"SCALAR"},{"bufferView":24,"componentType":5126,"count":85428,"max":[5.6725077629089355,38.70000076293945,5.675000190734863],"min":[-5.6725077629089355,-9.43689570931383e-16,-5.675000190734863],"type":"VEC3"},{"bufferView":25,"componentType":5126,"count":85428,"type":"VEC3"},{"bufferView":26,"componentType":5126,"count":85428,"type":"VEC2"},{"bufferView":27,"componentType":5125,"count":85428,"type":"SCALAR"}],"asset":{"generator":"Keyshot Studio","version":"2.0"},"bufferViews":[{"buffer":0,"byteLength":305280,"byteOffset":0,"byteStride":12},{"buffer":0,"byteLength":305280,"byteOffset":305280,"byteStride":12},{"buffer":0,"byteLength":203520,"byteOffset":610560,"byteStride":8},{"buffer":0,"byteLength":101760,"byteOffset":814080},{"buffer":0,"byteLength":913320,"byteOffset":915840,"byteStride":12},{"buffer":0,"byteLength":913320,"byteOffset":1829160,"byteStride":12},{"buffer":0,"byteLength":608880,"byteOffset":2742480,"byteStride":8},{"buffer":0,"byteLength":304440,"byteOffset":3351360},{"buffer":0,"byteLength":75168,"byteOffset":3655800,"byteStride":12},{"buffer":0,"byteLength":75168,"byteOffset":3730968,"byteStride":12},{"buffer":0,"byteLength":50112,"byteOffset":3806136,"byteStride":8},{"buffer":0,"byteLength":25056,"byteOffset":3856248},{"buffer":0,"byteLength":203616,"byteOffset":3881304,"byteStride":12},{"buffer":0,"byteLength":203616,"byteOffset":4084920,"byteStride":12},{"buffer":0,"byteLength":135744,"byteOffset":4288536,"byteStride":8},{"buffer":0,"byteLength":67872,"byteOffset":4424280},{"buffer":0,"byteLength":342144,"byteOffset":4492152,"byteStride":12},{"buffer":0,"byteLength":342144,"byteOffset":4834296,"byteStride":12},{"buffer":0,"byteLength":228096,"byteOffset":5176440,"byteStride":8},{"buffer":0,"byteLength":114048,"byteOffset":5404536},{"buffer":0,"byteLength":1099080,"byteOffset":5518584,"byteStride":12},{"buffer":0,"byteLength":1099080,"byteOffset":6617664,"byteStride":12},{"buffer":0,"byteLength":732720,"byteOffset":7716744,"byteStride":8},{"buffer":0,"byteLength":366360,"byteOffset":8449464},{"buffer":0,"byteLength":1025136,"byteOffset":8815824,"byteStride":12},{"buffer":0,"byteLength":1025136,"byteOffset":9840960,"byteStride":12},{"buffer":0,"byteLength":683424,"byteOffset":10866096,"byteStride":8},{"buffer":0,"byteLength":341712,"byteOffset":11549520}],"buffers":[{"byteLength":11891232,"uri":"./STVT-Scorpio-7_62x39_resources/STVT-Scorpio-7_62x39.bin"}],"cameras":[{"name":"active","perspective":{"aspectRatio":1.0,"yfov":0.6911154697478635,"znear":0.11488939076662064},"type":"perspective"}],"images":[{"uri":"./STVT-Scorpio-7_62x39_resources/505-141-601-000_-_Draft_plomb_press‚_1_color_128_128_128_0_occlusion.jpeg"},{"uri":"./STVT-Scorpio-7_62x39_resources/Copper_Rough__#2_19_occlusion.jpeg"},{"uri":"./STVT-Scorpio-7_62x39_resources/Brass_Rough__#3_776_occlusion.jpeg"},{"uri":"./STVT-Scorpio-7_62x39_resources/Brass_Rough__#3_788_occlusion.jpeg"},{"uri":"./STVT-Scorpio-7_62x39_resources/Brass_Rough__#3_826_occlusion.jpeg"},{"uri":"./STVT-Scorpio-7_62x39_resources/Prach_7,62x39_color_128_128_128_835_occlusion.jpeg"},{"uri":"./STVT-Scorpio-7_62x39_resources/Brass_Rough__#2_843_occlusion.jpeg"}],"materials":[{"doubleSided":true,"name":"505-141-601-000_-_Draft_plomb_press‚_1_color_128_128_128_0","occlusionTexture":{"index":0},"pbrMetallicRoughness":{"baseColorFactor":[0.5019609928131104,0.5019609928131104,0.5019609928131104,1.0],"metallicFactor":0.0,"roughnessFactor":1.0}},{"doubleSided":true,"name":"Copper_Rough__#2_19","occlusionTexture":{"index":1},"pbrMetallicRoughness":{"baseColorFactor":[1.0,0.6110671758651733,0.4308300018310547,1.0],"metallicFactor":1.0,"roughnessFactor":0.3162277638912201}},{"doubleSided":true,"name":"Brass_Rough__#3_776","occlusionTexture":{"index":2},"pbrMetallicRoughness":{"baseColorFactor":[0.9085993766784668,0.7786409258842468,0.42343220114707947,1.0],"metallicFactor":1.0,"roughnessFactor":0.3162277638912201}},{"doubleSided":true,"name":"Brass_Rough__#3_788","occlusionTexture":{"index":3},"pbrMetallicRoughness":{"baseColorFactor":[0.9085993766784668,0.7786409258842468,0.42343220114707947,1.0],"metallicFactor":1.0,"roughnessFactor":0.3162277638912201}},{"doubleSided":true,"name":"Brass_Rough__#3_826","occlusionTexture":{"index":4},"pbrMetallicRoughness":{"baseColorFactor":[0.9085993766784668,0.7786409258842468,0.42343220114707947,1.0],"metallicFactor":1.0,"roughnessFactor":0.3162277638912201}},{"doubleSided":true,"name":"Prach_7,62x39_color_128_128_128_835","occlusionTexture":{"index":5},"pbrMetallicRoughness":{"baseColorFactor":[0.5019609928131104,0.5019609928131104,0.5019609928131104,1.0],"metallicFactor":0.0,"roughnessFactor":1.0}},{"doubleSided":true,"name":"Brass_Rough__#2_843","occlusionTexture":{"index":6},"pbrMetallicRoughness":{"baseColorFactor":[0.9085993766784668,0.7786409258842468,0.42343220114707947,1.0],"metallicFactor":1.0,"roughnessFactor":0.3162277638912201}}],"meshes":[{"name":"505-141-601-000 - Draft_plomb press‚_1","primitives":[{"attributes":{"NORMAL":1,"POSITION":0,"TEXCOORD_0":2},"indices":3,"material":0,"mode":4}]},{"name":"505-141-600-000","primitives":[{"attributes":{"NORMAL":5,"POSITION":4,"TEXCOORD_0":6},"indices":7,"material":1,"mode":4}]},{"name":"Model_zápalky_7,62x39","primitives":[{"attributes":{"NORMAL":9,"POSITION":8,"TEXCOORD_0":10},"indices":11,"material":2,"mode":4}]},{"name":"Model_zápalky_7,62x39","primitives":[{"attributes":{"NORMAL":13,"POSITION":12,"TEXCOORD_0":14},"indices":15,"material":3,"mode":4}]},{"name":"Model_zápalky_7,62x39","primitives":[{"attributes":{"NORMAL":17,"POSITION":16,"TEXCOORD_0":18},"indices":19,"material":4,"mode":4}]},{"name":"Prach_7,62x39","primitives":[{"attributes":{"NORMAL":21,"POSITION":20,"TEXCOORD_0":22},"indices":23,"material":5,"mode":4}]},{"name":"505-141-611-000","primitives":[{"attributes":{"NORMAL":25,"POSITION":24,"TEXCOORD_0":26},"indices":27,"material":6,"mode":4}]}],"nodes":[{"camera":0,"matrix":[0.0009340095703339948,-1.9636609271955763e-10,0.00035724847726291143,0.0,6.750597511754847e-05,0.0009819847691783469,-0.00017649070044770308,0.0,-0.0003508124053478241,0.00018896034359931947,0.0009171828627586365,0.0,-0.036974491119384764,0.05786650848388672,0.13632534790039064,1.0],"name":"active"},{"mesh":0,"name":"505-141-601-000 - Draft_plomb press‚_1"},{"children":[1],"name":"505-141-601-000 - Draft_plomb press‚_1"},{"mesh":1,"name":"505-141-600-000"},{"children":[3],"name":"505-141-600-000"},{"children":[2,4],"matrix":[-0.964788019657135,-1.7347199604592037e-18,0.263029009103775,0.0,1.673640013450099e-18,-1.0,-4.562830105455421e-19,0.0,0.263029009103775,0.0,0.964788019657135,0.0,-47.1234016418457,36.4109992980957,51.18000030517578,1.0],"name":"505-141-602-000"},{"mesh":2,"name":"Model_zápalky_7,62x39"},{"mesh":3,"name":"Model_zápalky_7,62x39"},{"mesh":4,"name":"Model_zápalky_7,62x39"},{"children":[6,7,8],"matrix":[-6.722050160687677e-18,1.0,-2.081669990969516e-17,0.0,-0.9992480278015137,-7.524149829887485e-18,-0.03877430036664009,0.0,-0.03877430036664009,2.0540400078406524e-17,0.9992480278015137,0.0,-47.1234016418457,-19.48900032043457,51.18000030517578,1.0],"name":"Model_zápalky_7,62x39"},{"mesh":5,"name":"Prach_7,62x39"},{"children":[10],"matrix":[0.9728900194168091,0.0,0.2312690019607544,0.0,0.0,1.0,0.0,0.0,-0.2312690019607544,0.0,0.9728900194168091,0.0,-47.1234016418457,-15.189000129699707,51.18000030517578,1.0],"name":"Prach_7,62x39"},{"mesh":6,"name":"505-141-611-000"},{"children":[12],"matrix":[1.0,0.0,0.0,0.0,0.0,1.0,0.0,0.0,0.0,0.0,1.0,0.0,-47.1234016418457,-19.589000701904297,51.18000030517578,1.0],"name":"505-141-611-000"},{"children":[5,9,11,13],"matrix":[1.0,0.0,0.0,0.0,0.0,6.123233995736766e-17,-1.0,0.0,0.0,1.0,6.123233995736766e-17,0.0,47.1234016418457,-23.18000030551986,8.410999297751616,1.0],"name":"STVT-739-LAB-33"},{"children":[14],"name":"New Model Set"},{"name":"Default"},{"children":[15,16],"matrix":[0.001,0.0,0.0,0.0,0.0,0.001,0.0,0.0,0.0,0.0,0.001,0.0,0.0,0.0,0.0,1.0],"name":"lux_root"}],"samplers":[{"magFilter":9729,"minFilter":9987,"wrapS":10497,"wrapT":10497},{"magFilter":9729,"minFilter":9987,"wrapS":10497,"wrapT":10497},{"magFilter":9729,"minFilter":9987,"wrapS":10497,"wrapT":10497},{"magFilter":9729,"minFilter":9987,"wrapS":10497,"wrapT":10497},{"magFilter":9729,"minFilter":9987,"wrapS":10497,"wrapT":10497},{"magFilter":9729,"minFilter":9987,"wrapS":10497,"wrapT":10497},{"magFilter":9729,"minFilter":9987,"wrapS":10497,"wrapT":10497}],"scenes":[{"nodes":[0,17]}],"textures":[{"sampler":0,"source":0},{"sampler":1,"source":1},{"sampler":2,"source":2},{"sampler":3,"source":3},{"sampler":4,"source":4},{"sampler":5,"source":5},{"sampler":6,"source":6}]}   