{"accessors":[{"bufferView":0,"componentType":5126,"count":442938,"max":[0.0,77.3643798828125,77.36499786376953],"min":[-318.0,-77.3643798828125,-77.3625259399414],"type":"VEC3"},{"bufferView":1,"componentType":5126,"count":442938,"type":"VEC3"},{"bufferView":2,"componentType":5126,"count":442938,"type":"VEC2"},{"bufferView":3,"componentType":5125,"count":442938,"type":"SCALAR"},{"bufferView":4,"componentType":5126,"count":63444,"max":[36.77631378173828,78.994384765625,78.99252319335938],"min":[2.4875643253326416,-78.994384765625,-78.99500274658203],"type":"VEC3"},{"bufferView":5,"componentType":5126,"count":63444,"type":"VEC3"},{"bufferView":6,"componentType":5126,"count":63444,"type":"VEC2"},{"bufferView":7,"componentType":5125,"count":63444,"type":"SCALAR"},{"bufferView":8,"componentType":5126,"count":270630,"max":[312.0,77.36254119873047,77.36499786376953],"min":[0.0,-77.36254119873047,-77.36499786376953],"type":"VEC3"},{"bufferView":9,"componentType":5126,"count":270630,"type":"VEC3"},{"bufferView":10,"componentType":5126,"count":270630,"type":"VEC2"},{"bufferView":11,"componentType":5125,"count":270630,"type":"SCALAR"},{"bufferView":12,"componentType":5126,"count":49698,"max":[66.99868774414063,1.2485841512680054,67.0],"min":[-66.99868774414063,-1.2485860586166382,-66.9947509765625],"type":"VEC3"},{"bufferView":13,"componentType":5126,"count":49698,"type":"VEC3"},{"bufferView":14,"componentType":5126,"count":49698,"type":"VEC2"},{"bufferView":15,"componentType":5125,"count":49698,"type":"SCALAR"},{"bufferView":16,"componentType":5126,"count":19716,"max":[5.747474670410156,0.49935826659202576,5.75],"min":[-5.747475624084473,-0.49935826659202576,-5.749998569488525],"type":"VEC3"},{"bufferView":17,"componentType":5126,"count":19716,"type":"VEC3"},{"bufferView":18,"componentType":5126,"count":19716,"type":"VEC2"},{"bufferView":19,"componentType":5125,"count":19716,"type":"SCALAR"},{"bufferView":20,"componentType":5126,"count":14682,"max":[5.5,5.5,0.0],"min":[-5.5,-5.5,-13.273470878601074],"type":"VEC3"},{"bufferView":21,"componentType":5126,"count":14682,"type":"VEC3"},{"bufferView":22,"componentType":5126,"count":14682,"type":"VEC2"},{"bufferView":23,"componentType":5125,"count":14682,"type":"SCALAR"},{"bufferView":24,"componentType":5126,"count":91668,"max":[30.669368743896484,126.0,30.667478561401367],"min":[-30.669368743896484,-1.3322676295501878e-15,-30.670000076293945],"type":"VEC3"},{"bufferView":25,"componentType":5126,"count":91668,"type":"VEC3"},{"bufferView":26,"componentType":5126,"count":91668,"type":"VEC2"},{"bufferView":27,"componentType":5125,"count":91668,"type":"SCALAR"}],"asset":{"generator":"Keyshot Studio","version":"2.0"},"bufferViews":[{"buffer":0,"byteLength":5315256,"byteOffset":0,"byteStride":12},{"buffer":0,"byteLength":5315256,"byteOffset":5315256,"byteStride":12},{"buffer":0,"byteLength":3543504,"byteOffset":10630512,"byteStride":8},{"buffer":0,"byteLength":1771752,"byteOffset":14174016},{"buffer":0,"byteLength":761328,"byteOffset":15945768,"byteStride":12},{"buffer":0,"byteLength":761328,"byteOffset":16707096,"byteStride":12},{"buffer":0,"byteLength":507552,"byteOffset":17468424,"byteStride":8},{"buffer":0,"byteLength":253776,"byteOffset":17975976},{"buffer":0,"byteLength":3247560,"byteOffset":18229752,"byteStride":12},{"buffer":0,"byteLength":3247560,"byteOffset":21477312,"byteStride":12},{"buffer":0,"byteLength":2165040,"byteOffset":24724872,"byteStride":8},{"buffer":0,"byteLength":1082520,"byteOffset":26889912},{"buffer":0,"byteLength":596376,"byteOffset":27972432,"byteStride":12},{"buffer":0,"byteLength":596376,"byteOffset":28568808,"byteStride":12},{"buffer":0,"byteLength":397584,"byteOffset":29165184,"byteStride":8},{"buffer":0,"byteLength":198792,"byteOffset":29562768},{"buffer":0,"byteLength":236592,"byteOffset":29761560,"byteStride":12},{"buffer":0,"byteLength":236592,"byteOffset":29998152,"byteStride":12},{"buffer":0,"byteLength":157728,"byteOffset":30234744,"byteStride":8},{"buffer":0,"byteLength":78864,"byteOffset":30392472},{"buffer":0,"byteLength":176184,"byteOffset":30471336,"byteStride":12},{"buffer":0,"byteLength":176184,"byteOffset":30647520,"byteStride":12},{"buffer":0,"byteLength":117456,"byteOffset":30823704,"byteStride":8},{"buffer":0,"byteLength":58728,"byteOffset":30941160},{"buffer":0,"byteLength":1100016,"byteOffset":30999888,"byteStride":12},{"buffer":0,"byteLength":1100016,"byteOffset":32099904,"byteStride":12},{"buffer":0,"byteLength":733344,"byteOffset":33199920,"byteStride":8},{"buffer":0,"byteLength":366672,"byteOffset":33933264}],"buffers":[{"byteLength":34299936,"uri":"./155_mm_HE_M107_resources/155_mm_HE_M107.bin"}],"cameras":[{"name":"active","perspective":{"aspectRatio":1.0,"yfov":0.6911154697478635,"znear":1.8975986242294312},"type":"perspective"}],"extensionsUsed":["KHR_materials_specular"],"images":[{"uri":"./155_mm_HE_M107_resources/těla_kov_var_02_#1_188205_color.jpeg"},{"uri":"./155_mm_HE_M107_resources/těla_kov_var_02_#1_188205_roughness_metalness.jpeg"},{"uri":"./155_mm_HE_M107_resources/těla_kov_var_02_#1_188205_specularColor.jpeg"},{"uri":"./155_mm_HE_M107_resources/těla_kov_var_02_#1_188205_occlusion.jpeg"},{"uri":"./155_mm_HE_M107_resources/STV_obruč_#1_188872_occlusion.jpeg"},{"uri":"./155_mm_HE_M107_resources/těla_kov_var_02_#1_188889_color.jpeg"},{"uri":"./155_mm_HE_M107_resources/těla_kov_var_02_#1_188889_roughness_metalness.jpeg"},{"uri":"./155_mm_HE_M107_resources/těla_kov_var_02_#1_188889_specularColor.jpeg"},{"uri":"./155_mm_HE_M107_resources/těla_kov_var_02_#1_188889_occlusion.jpeg"},{"uri":"./155_mm_HE_M107_resources/510-O-KROUZEK_O-Kroužek_129x2,5_color_128_128_128_189102_occlusion.jpeg"},{"uri":"./155_mm_HE_M107_resources/510-O-KROUZEK_O-KROUŽEK_9,5x1_color_128_128_128_189104_occlusion.jpeg"},{"uri":"./155_mm_HE_M107_resources/PD602-25-0860_color_128_128_128_189106_occlusion.jpeg"},{"uri":"./155_mm_HE_M107_resources/Metal_Rough_White_#1_189126_occlusion.jpeg"}],"materials":[{"doubleSided":true,"extensions":{"KHR_materials_specular":{"specularColorTexture":{"index":2},"specularFactor":1.0}},"name":"těla_kov_var_02_#1_188205","occlusionTexture":{"index":3},"pbrMetallicRoughness":{"baseColorTexture":{"index":0},"metallicRoughnessTexture":{"index":1}}},{"doubleSided":true,"name":"STV_obruč_#1_188872","occlusionTexture":{"index":4},"pbrMetallicRoughness":{"baseColorFactor":[0.954579770565033,0.6377737522125244,0.5390524864196777,1.0],"metallicFactor":1.0,"roughnessFactor":0.3162277638912201}},{"doubleSided":true,"extensions":{"KHR_materials_specular":{"specularColorTexture":{"index":7},"specularFactor":1.0}},"name":"těla_kov_var_02_#1_188889","occlusionTexture":{"index":8},"pbrMetallicRoughness":{"baseColorTexture":{"index":5},"metallicRoughnessTexture":{"index":6}}},{"doubleSided":true,"name":"510-O-KROUZEK_O-Kroužek_129x2,5_color_128_128_128_189102","occlusionTexture":{"index":9},"pbrMetallicRoughness":{"baseColorFactor":[0.5019609928131104,0.5019609928131104,0.5019609928131104,1.0],"metallicFactor":0.0,"roughnessFactor":1.0}},{"doubleSided":true,"name":"510-O-KROUZEK_O-KROUŽEK_9,5x1_color_128_128_128_189104","occlusionTexture":{"index":10},"pbrMetallicRoughness":{"baseColorFactor":[0.5019609928131104,0.5019609928131104,0.5019609928131104,1.0],"metallicFactor":0.0,"roughnessFactor":1.0}},{"doubleSided":true,"name":"PD602-25-0860_color_128_128_128_189106","occlusionTexture":{"index":11},"pbrMetallicRoughness":{"baseColorFactor":[0.5019609928131104,0.5019609928131104,0.5019609928131104,1.0],"metallicFactor":0.0,"roughnessFactor":1.0}},{"doubleSided":true,"name":"Metal_Rough_White_#1_189126","occlusionTexture":{"index":12},"pbrMetallicRoughness":{"baseColorFactor":[1.0,1.0,1.0,1.0],"metallicFactor":1.0,"roughnessFactor":0.3162277638912201}}],"meshes":[{"name":"M107-25-0050_Šablonace","primitives":[{"attributes":{"NORMAL":1,"POSITION":0,"TEXCOORD_0":2},"indices":3,"material":0,"mode":4}]},{"name":"M107-24-1893","primitives":[{"attributes":{"NORMAL":5,"POSITION":4,"TEXCOORD_0":6},"indices":7,"material":1,"mode":4}]},{"name":"M107-24-1919_Šablonace","primitives":[{"attributes":{"NORMAL":9,"POSITION":8,"TEXCOORD_0":10},"indices":11,"material":2,"mode":4}]},{"name":"510-O-KROUZEK_O-Kroužek 129x2,5","primitives":[{"attributes":{"NORMAL":13,"POSITION":12,"TEXCOORD_0":14},"indices":15,"material":3,"mode":4}]},{"name":"510-O-KROUZEK_O-KROUŽEK 9,5x1","primitives":[{"attributes":{"NORMAL":17,"POSITION":16,"TEXCOORD_0":18},"indices":19,"material":4,"mode":4}]},{"name":"PD602-25-0860","primitives":[{"attributes":{"NORMAL":21,"POSITION":20,"TEXCOORD_0":22},"indices":23,"material":5,"mode":4}]},{"name":"PD602-25-0858","primitives":[{"attributes":{"NORMAL":25,"POSITION":24,"TEXCOORD_0":26},"indices":27,"material":6,"mode":4}]}],"nodes":[{"camera":0,"matrix":[0.0009998866518791671,-2.0904031201168794e-10,-1.5034971375035577e-05,0.0,-1.2884806559930282e-06,0.0009963192397748932,-8.570304843787166e-05,0.0,1.4979658648371697e-05,8.571276068687439e-05,0.0009962069392204286,0.0,0.1044595184326172,0.5329417724609375,1.997550048828125,1.0],"name":"active"},{"mesh":0,"name":"M107-25-0050_Šablonace"},{"children":[1],"name":"M107-25-0050_Šablonace"},{"mesh":1,"name":"M107-24-1893"},{"children":[3],"matrix":[1.0,2.928530014696689e-33,0.0,0.0,-2.928530014696689e-33,1.0,2.2204500197172533e-16,0.0,0.0,-2.2204500197172533e-16,1.0,0.0,-124.69999694824219,0.0,0.0,1.0],"name":"M107-24-1893"},{"children":[2,4],"name":"M107-25-0059_Šablonace"},{"mesh":2,"name":"M107-24-1919_Šablonace"},{"children":[6],"matrix":[1.0,1.4642599563960558e-33,0.0,0.0,1.4642599563960558e-33,-1.0,-1.1102199806005023e-16,0.0,0.0,1.1102199806005023e-16,-1.0,0.0,-602.0,0.0,0.0,1.0],"name":"M107-24-1919_Šablonace"},{"mesh":3,"name":"510-O-KROUZEK_O-Kroužek 129x2,5"},{"children":[8],"matrix":[-1.4642599563960558e-33,-1.0,-1.1102199806005023e-16,0.0,1.0,-1.4642599563960558e-33,0.0,0.0,0.0,1.1102199806005023e-16,1.0,0.0,-289.04998779296875,0.0,0.0,1.0],"name":"510-O-KROUZEK_O-Kroužek 129x2,5"},{"mesh":4,"name":"510-O-KROUZEK_O-KROUŽEK 9,5x1"},{"children":[10],"matrix":[0.02570500038564205,0.982795000076294,-0.18289999663829803,0.0,-0.9902679920196533,-3.4694499298038194e-17,-0.1391730010509491,0.0,-0.13677899539470673,0.18469800055027008,0.9732310175895691,0.0,25.20210075378418,7.355230185119622e-16,38.255401611328125,1.0],"name":"510-O-KROUZEK_O-KROUŽEK 9,5x1"},{"mesh":5,"name":"PD602-25-0860"},{"children":[12],"matrix":[0.1391330063343048,-0.024128999561071396,-0.9899799823760986,0.0,-0.003358110086992383,-0.9997090101242065,0.02389420010149479,0.0,-0.9902679920196533,-1.2663499903476413e-16,-0.1391730010509491,0.0,15.645999908447266,-1.1102199806005023e-16,36.91239929199219,1.0],"name":"PD602-25-0860"},{"mesh":6,"name":"PD602-25-0858"},{"children":[14],"matrix":[1.0,3.1932899134102544e-33,2.4651900349420742e-32,0.0,-2.4651900349420742e-32,1.232600013322028e-32,1.0,0.0,-3.1932899134102544e-33,-1.0,1.232600013322028e-32,0.0,0.0,0.0,0.0,1.0],"name":"PD602-25-0858"},{"children":[11,13,15],"matrix":[1.2265500297385299e-16,0.7071070075035095,-0.7071070075035095,0.0,-3.867609926215708e-18,-0.7071070075035095,-0.7071070075035095,0.0,-1.0,8.946469853251797e-17,-8.399500312795803e-17,0.0,-571.0,-1.3877799666275718e-14,-2.7755599332551437e-14,1.0],"name":"PD602-25-0861"},{"children":[5,7,9,16],"matrix":[-1.2421100249795914e-16,-6.16298023014297e-33,-1.0,0.0,-4.507550178485663e-34,1.0,-6.16298023014297e-33,0.0,1.0,4.507550178485663e-34,-1.2421100249795914e-16,0.0,137.05999755859375,100.60900115966797,-2.0,1.0],"name":"M107-26-0918_Zavěsné oko"},{"children":[17],"matrix":[1.0,0.0,0.0,0.0,0.0,6.123233995736766e-17,-1.0,0.0,0.0,1.0,6.123233995736767e-17,0.0,-137.0587615966797,1.9999999999993179,100.60900115966803,1.0],"name":"155M107"},{"children":[18],"name":"New Model Set 2"},{"name":"Default"},{"children":[19,20],"matrix":[0.001,0.0,0.0,0.0,0.0,0.001,0.0,0.0,0.0,0.0,0.001,0.0,0.0,0.0,0.0,1.0],"name":"lux_root"}],"samplers":[{"magFilter":9729,"minFilter":9987,"wrapS":10497,"wrapT":10497},{"magFilter":9729,"minFilter":9987,"wrapS":10497,"wrapT":10497},{"magFilter":9729,"minFilter":9987,"wrapS":10497,"wrapT":10497},{"magFilter":9729,"minFilter":9987,"wrapS":10497,"wrapT":10497},{"magFilter":9729,"minFilter":9987,"wrapS":10497,"wrapT":10497},{"magFilter":9729,"minFilter":9987,"wrapS":10497,"wrapT":10497},{"magFilter":9729,"minFilter":9987,"wrapS":10497,"wrapT":10497},{"magFilter":9729,"minFilter":9987,"wrapS":10497,"wrapT":10497},{"magFilter":9729,"minFilter":9987,"wrapS":10497,"wrapT":10497},{"magFilter":9729,"minFilter":9987,"wrapS":10497,"wrapT":10497},{"magFilter":9729,"minFilter":9987,"wrapS":10497,"wrapT":10497},{"magFilter":9729,"minFilter":9987,"wrapS":10497,"wrapT":10497},{"magFilter":9729,"minFilter":9987,"wrapS":10497,"wrapT":10497}],"scenes":[{"nodes":[0,21]}],"textures":[{"sampler":0,"source":0},{"sampler":1,"source":1},{"sampler":2,"source":2},{"sampler":3,"source":3},{"sampler":4,"source":4},{"sampler":5,"source":5},{"sampler":6,"source":6},{"sampler":7,"source":7},{"sampler":8,"source":8},{"sampler":9,"source":9},{"sampler":10,"source":10},{"sampler":11,"source":11},{"sampler":12,"source":12}]}