{"accessors":[{"bufferView":0,"componentType":5126,"count":19098,"max":[37.43014907836914,50.0,102.07186126708984],"min":[11.46432113647461,49.900001525878906,24.743215560913086],"type":"VEC3"},{"bufferView":1,"componentType":5126,"count":19098,"type":"VEC3"},{"bufferView":2,"componentType":5126,"count":19098,"type":"VEC2"},{"bufferView":3,"componentType":5125,"count":19098,"type":"SCALAR"},{"bufferView":4,"componentType":5126,"count":7284,"max":[50.0,50.0,127.0],"min":[-6.938893903907228e-15,0.0,0.0],"type":"VEC3"},{"bufferView":5,"componentType":5126,"count":7284,"type":"VEC3"},{"bufferView":6,"componentType":5126,"count":7284,"type":"VEC2"},{"bufferView":7,"componentType":5125,"count":7284,"type":"SCALAR"},{"bufferView":8,"componentType":5126,"count":720,"max":[7.25,10.0,7.25],"min":[-7.25,4.0,-7.25],"type":"VEC3"},{"bufferView":9,"componentType":5126,"count":720,"type":"VEC3"},{"bufferView":10,"componentType":5126,"count":720,"type":"VEC2"},{"bufferView":11,"componentType":5125,"count":720,"type":"SCALAR"},{"bufferView":12,"componentType":5126,"count":5964,"max":[7.237735271453857,10.0,7.25],"min":[-7.237735271453857,-8.881784197001252e-16,-7.25],"type":"VEC3"},{"bufferView":13,"componentType":5126,"count":5964,"type":"VEC3"},{"bufferView":14,"componentType":5126,"count":5964,"type":"VEC2"},{"bufferView":15,"componentType":5125,"count":5964,"type":"SCALAR"},{"bufferView":16,"componentType":5126,"count":19674,"max":[9.5,9.499375343322754,50.0],"min":[-9.5,-9.499375343322754,0.0],"type":"VEC3"},{"bufferView":17,"componentType":5126,"count":19674,"type":"VEC3"},{"bufferView":18,"componentType":5126,"count":19674,"type":"VEC2"},{"bufferView":19,"componentType":5125,"count":19674,"type":"SCALAR"},{"bufferView":20,"componentType":5126,"count":9978,"max":[49.599998474121094,126.80000305175781,0.0],"min":[0.0,0.0,-49.599998474121094],"type":"VEC3"},{"bufferView":21,"componentType":5126,"count":9978,"type":"VEC3"},{"bufferView":22,"componentType":5126,"count":9978,"type":"VEC2"},{"bufferView":23,"componentType":5125,"count":9978,"type":"SCALAR"},{"bufferView":24,"componentType":5126,"count":2532,"max":[50.0,0.0,0.20000000298023224],"min":[-1.9984013913857226e-16,-50.0,-6.245004513516506e-14],"type":"VEC3"},{"bufferView":25,"componentType":5126,"count":2532,"type":"VEC3"},{"bufferView":26,"componentType":5126,"count":2532,"type":"VEC2"},{"bufferView":27,"componentType":5125,"count":2532,"type":"SCALAR"},{"bufferView":28,"componentType":5126,"count":1644,"max":[8.997527122497559,0.5,9.0],"min":[-8.997527122497559,0.0,-9.0],"type":"VEC3"},{"bufferView":29,"componentType":5126,"count":1644,"type":"VEC3"},{"bufferView":30,"componentType":5126,"count":1644,"type":"VEC2"},{"bufferView":31,"componentType":5125,"count":1644,"type":"SCALAR"}],"asset":{"generator":"Keyshot Studio","version":"2.0"},"bufferViews":[{"buffer":0,"byteLength":229176,"byteOffset":0,"byteStride":12},{"buffer":0,"byteLength":229176,"byteOffset":229176,"byteStride":12},{"buffer":0,"byteLength":152784,"byteOffset":458352,"byteStride":8},{"buffer":0,"byteLength":76392,"byteOffset":611136},{"buffer":0,"byteLength":87408,"byteOffset":687528,"byteStride":12},{"buffer":0,"byteLength":87408,"byteOffset":774936,"byteStride":12},{"buffer":0,"byteLength":58272,"byteOffset":862344,"byteStride":8},{"buffer":0,"byteLength":29136,"byteOffset":920616},{"buffer":0,"byteLength":8640,"byteOffset":949752,"byteStride":12},{"buffer":0,"byteLength":8640,"byteOffset":958392,"byteStride":12},{"buffer":0,"byteLength":5760,"byteOffset":967032,"byteStride":8},{"buffer":0,"byteLength":2880,"byteOffset":972792},{"buffer":0,"byteLength":71568,"byteOffset":975672,"byteStride":12},{"buffer":0,"byteLength":71568,"byteOffset":1047240,"byteStride":12},{"buffer":0,"byteLength":47712,"byteOffset":1118808,"byteStride":8},{"buffer":0,"byteLength":23856,"byteOffset":1166520},{"buffer":0,"byteLength":236088,"byteOffset":1190376,"byteStride":12},{"buffer":0,"byteLength":236088,"byteOffset":1426464,"byteStride":12},{"buffer":0,"byteLength":157392,"byteOffset":1662552,"byteStride":8},{"buffer":0,"byteLength":78696,"byteOffset":1819944},{"buffer":0,"byteLength":119736,"byteOffset":1898640,"byteStride":12},{"buffer":0,"byteLength":119736,"byteOffset":2018376,"byteStride":12},{"buffer":0,"byteLength":79824,"byteOffset":2138112,"byteStride":8},{"buffer":0,"byteLength":39912,"byteOffset":2217936},{"buffer":0,"byteLength":30384,"byteOffset":2257848,"byteStride":12},{"buffer":0,"byteLength":30384,"byteOffset":2288232,"byteStride":12},{"buffer":0,"byteLength":20256,"byteOffset":2318616,"byteStride":8},{"buffer":0,"byteLength":10128,"byteOffset":2338872},{"buffer":0,"byteLength":19728,"byteOffset":2349000,"byteStride":12},{"buffer":0,"byteLength":19728,"byteOffset":2368728,"byteStride":12},{"buffer":0,"byteLength":13152,"byteOffset":2388456,"byteStride":8},{"buffer":0,"byteLength":6576,"byteOffset":2401608}],"buffers":[{"byteLength":2408184,"uri":"./TNT_500g_resources/TNT_500g.bin"}],"cameras":[{"name":"active","perspective":{"aspectRatio":1.0,"yfov":0.6911154697478635,"znear":0.3009946942329407},"type":"perspective"}],"extensionsUsed":["KHR_materials_specular","KHR_materials_clearcoat"],"images":[{"uri":"./TNT_500g_resources/Šablonace_#1_1672340929_clearcoatNormal.jpeg"},{"uri":"./TNT_500g_resources/Šablonace_#1_1672340929_occlusion.jpeg"},{"uri":"./TNT_500g_resources/Šablonace_#1_1672340929_normal.jpeg"},{"uri":"./TNT_500g_resources/OpenPBR_Leather030_2K-ambientCG_#1_1672341412_color.jpeg"},{"uri":"./TNT_500g_resources/OpenPBR_Leather030_2K-ambientCG_#1_1672341412_occlusion.jpeg"},{"uri":"./TNT_500g_resources/S4-TNN-0381_color_203_210_239_#1_1672341424_occlusion.jpeg"},{"uri":"./TNT_500g_resources/TNT_NÁLOŽKA_500_color_178_178_178_1672341426_occlusion.jpeg"},{"uri":"./TNT_500g_resources/S4-TNN-0383_color_64_64_64_#1_1672341435_occlusion.jpeg"},{"uri":"./TNT_500g_resources/TNT_NÁLOŽKA_500_color_178_178_178_1672341447_occlusion.jpeg"},{"uri":"./TNT_500g_resources/OpenPBR_Leather030_2K-ambientCG_#1_1672341456_color.jpeg"},{"uri":"./TNT_500g_resources/OpenPBR_Leather030_2K-ambientCG_#1_1672341456_occlusion.jpeg"},{"uri":"./TNT_500g_resources/TNT_NÁLOŽKA_500_color_178_178_178_1672341464_occlusion.jpeg"}],"materials":[{"doubleSided":true,"extensions":{"KHR_materials_clearcoat":{"clearcoatFactor":1.0,"clearcoatNormalTexture":{"index":0},"clearcoatRoughnessFactor":0.3162277638912201},"KHR_materials_specular":{"specularColorFactor":[1.0,1.0,1.0],"specularFactor":1.0}},"name":"Šablonace_#1_1672340929","normalTexture":{"index":2,"scale":1.0},"occlusionTexture":{"index":1},"pbrMetallicRoughness":{"baseColorFactor":[0.8169952034950256,0.5114639401435852,0.0159396193921566,1.0],"metallicFactor":0.0,"roughnessFactor":0.3162277638912201}},{"doubleSided":true,"extensions":{"KHR_materials_clearcoat":{"clearcoatRoughnessFactor":0.029999999329447746},"KHR_materials_specular":{"specularColorFactor":[1.0,1.0,1.0],"specularFactor":1.0}},"name":"OpenPBR_Leather030_2K-ambientCG_#1_1672341412","occlusionTexture":{"index":4},"pbrMetallicRoughness":{"baseColorTexture":{"index":3},"metallicFactor":0.0,"roughnessFactor":0.25}},{"doubleSided":true,"name":"S4-TNN-0381_color_203_210_239_#1_1672341424","occlusionTexture":{"index":5},"pbrMetallicRoughness":{"baseColorFactor":[0.7960780262947083,0.8235290050506592,0.9372550249099731,1.0],"metallicFactor":0.0,"roughnessFactor":1.0}},{"doubleSided":true,"name":"TNT_NÁLOŽKA_500_color_178_178_178_1672341426","occlusionTexture":{"index":6},"pbrMetallicRoughness":{"baseColorFactor":[0.6980389952659607,0.6980389952659607,0.6980389952659607,1.0],"metallicFactor":0.0,"roughnessFactor":1.0}},{"doubleSided":true,"name":"S4-TNN-0383_color_64_64_64_#1_1672341435","occlusionTexture":{"index":7},"pbrMetallicRoughness":{"baseColorFactor":[0.2509799897670746,0.2509799897670746,0.2509799897670746,1.0],"metallicFactor":0.0,"roughnessFactor":1.0}},{"doubleSided":true,"name":"TNT_NÁLOŽKA_500_color_178_178_178_1672341447","occlusionTexture":{"index":8},"pbrMetallicRoughness":{"baseColorFactor":[0.6980389952659607,0.6980389952659607,0.6980389952659607,1.0],"metallicFactor":0.0,"roughnessFactor":1.0}},{"doubleSided":true,"extensions":{"KHR_materials_clearcoat":{"clearcoatRoughnessFactor":0.029999999329447746},"KHR_materials_specular":{"specularColorFactor":[1.0,1.0,1.0],"specularFactor":1.0}},"name":"OpenPBR_Leather030_2K-ambientCG_#1_1672341456","occlusionTexture":{"index":10},"pbrMetallicRoughness":{"baseColorTexture":{"index":9},"metallicFactor":0.0,"roughnessFactor":0.25}},{"doubleSided":true,"name":"TNT_NÁLOŽKA_500_color_178_178_178_1672341464","occlusionTexture":{"index":11},"pbrMetallicRoughness":{"baseColorFactor":[0.6980389952659607,0.6980389952659607,0.6980389952659607,1.0],"metallicFactor":0.0,"roughnessFactor":1.0}}],"meshes":[{"name":"S4-TNN-0384","primitives":[{"attributes":{"NORMAL":1,"POSITION":0,"TEXCOORD_0":2},"indices":3,"material":0,"mode":4}]},{"name":"S4-TNN-0384","primitives":[{"attributes":{"NORMAL":5,"POSITION":4,"TEXCOORD_0":6},"indices":7,"material":1,"mode":4}]},{"name":"S4-TNN-0381","primitives":[{"attributes":{"NORMAL":9,"POSITION":8,"TEXCOORD_0":10},"indices":11,"material":2,"mode":4}]},{"name":"S4-TNN-0381","primitives":[{"attributes":{"NORMAL":13,"POSITION":12,"TEXCOORD_0":14},"indices":15,"material":3,"mode":4}]},{"name":"S4-TNN-0383","primitives":[{"attributes":{"NORMAL":17,"POSITION":16,"TEXCOORD_0":18},"indices":19,"material":4,"mode":4}]},{"name":"TNT_NÁLOŽKA_500","primitives":[{"attributes":{"NORMAL":21,"POSITION":20,"TEXCOORD_0":22},"indices":23,"material":5,"mode":4}]},{"name":"S4-TNN-0385","primitives":[{"attributes":{"NORMAL":25,"POSITION":24,"TEXCOORD_0":26},"indices":27,"material":6,"mode":4}]},{"name":"S4-TNN-0387","primitives":[{"attributes":{"NORMAL":29,"POSITION":28,"TEXCOORD_0":30},"indices":31,"material":7,"mode":4}]}],"nodes":[{"camera":0,"matrix":[0.0003827304459642527,-1.8722317474129113e-10,-0.0009238600447073076,0.0,-0.0007765586766030689,0.0005417201544479013,-0.0003217075483878415,0.0,0.00050047367811203,0.0008405588269233704,0.00020733265578746796,0.0,0.17411978149414062,0.31730712890625,0.07191146087646484,1.0],"name":"active"},{"mesh":0,"name":"S4-TNN-0384"},{"mesh":1,"name":"S4-TNN-0384"},{"children":[1,2],"matrix":[1.0,0.0,0.0,0.0,0.0,1.0,0.0,0.0,0.0,0.0,1.0,0.0,-30.11440086364746,7.366290092468262,-60.0,1.0],"name":"S4-TNN-0384"},{"mesh":2,"name":"S4-TNN-0381"},{"mesh":3,"name":"S4-TNN-0381"},{"children":[4,5],"matrix":[-0.6178190112113953,0.7863199710845947,0.0,0.0,0.0,0.0,1.0,0.0,0.7863199710845947,0.6178190112113953,0.0,0.0,0.16981500387191772,3.3113999366760254,65.0,1.0],"name":"S4-TNN-0381"},{"mesh":4,"name":"S4-TNN-0383"},{"children":[7],"matrix":[1.0,0.0,0.0,0.0,0.0,1.0,0.0,0.0,0.0,0.0,1.0,0.0,0.16981500387191772,3.3113999366760254,25.0,1.0],"name":"S4-TNN-0383"},{"children":[6,8],"name":"S4-TNN-0386"},{"mesh":5,"name":"TNT_NÁLOŽKA_500"},{"children":[10],"matrix":[1.0,0.0,0.0,0.0,0.0,0.0,1.0,0.0,0.0,-1.0,0.0,0.0,-24.630199432373047,-21.48859977722168,-51.79999923706055,1.0],"name":"TNT_NÁLOŽKA_500"},{"children":[9,11],"matrix":[1.0,0.0,0.0,0.0,0.0,1.0,0.0,0.0,0.0,0.0,1.0,0.0,-5.2841901779174805,29.054899215698242,-8.0,1.0],"name":"S4-TNN-0401"},{"mesh":6,"name":"S4-TNN-0385"},{"children":[13],"matrix":[1.0,0.0,0.0,0.0,0.0,1.0,0.0,0.0,0.0,0.0,1.0,0.0,-30.11440086364746,57.36629867553711,67.0,1.0],"name":"S4-TNN-0385"},{"mesh":7,"name":"S4-TNN-0387"},{"children":[15],"matrix":[1.0,0.0,0.0,0.0,0.0,-3.491479972977593e-15,1.0,0.0,0.0,-1.0,-3.491479972977593e-15,0.0,-5.114369869232178,32.36629867553711,67.14790344238281,1.0],"name":"S4-TNN-0387"},{"children":[3,12,14,16],"matrix":[1.0,0.0,0.0,0.0,0.0,1.0,0.0,0.0,0.0,0.0,1.0,0.0,5.114400863647461,-7.366290092468262,-3.8239517211914063,1.0],"name":"TNT_500g"},{"children":[17],"name":"New Model Set 1"},{"name":"Default"},{"children":[18,19],"matrix":[0.001,0.0,0.0,0.0,0.0,0.001,0.0,0.0,0.0,0.0,0.001,0.0,0.0,0.0,0.0,1.0],"name":"lux_root"}],"samplers":[{"magFilter":9729,"minFilter":9987,"wrapS":10497,"wrapT":10497},{"magFilter":9729,"minFilter":9987,"wrapS":10497,"wrapT":10497},{"magFilter":9729,"minFilter":9987,"wrapS":10497,"wrapT":10497},{"magFilter":9729,"minFilter":9987,"wrapS":10497,"wrapT":10497},{"magFilter":9729,"minFilter":9987,"wrapS":10497,"wrapT":10497},{"magFilter":9729,"minFilter":9987,"wrapS":10497,"wrapT":10497},{"magFilter":9729,"minFilter":9987,"wrapS":10497,"wrapT":10497},{"magFilter":9729,"minFilter":9987,"wrapS":10497,"wrapT":10497},{"magFilter":9729,"minFilter":9987,"wrapS":10497,"wrapT":10497},{"magFilter":9729,"minFilter":9987,"wrapS":10497,"wrapT":10497},{"magFilter":9729,"minFilter":9987,"wrapS":10497,"wrapT":10497},{"magFilter":9729,"minFilter":9987,"wrapS":10497,"wrapT":10497}],"scenes":[{"nodes":[0,20]}],"textures":[{"sampler":0,"source":0},{"sampler":1,"source":1},{"sampler":2,"source":2},{"sampler":3,"source":3},{"sampler":4,"source":4},{"sampler":5,"source":5},{"sampler":6,"source":6},{"sampler":7,"source":7},{"sampler":8,"source":8},{"sampler":9,"source":9},{"sampler":10,"source":10},{"sampler":11,"source":11}]}