{"accessors":[{"bufferView":0,"componentType":5126,"count":5724,"max":[2.799999952316284,2.222479820251465,2.2249999046325684],"min":[0.05000000074505806,-2.222479820251465,-2.2249999046325684],"type":"VEC3"},{"bufferView":1,"componentType":5126,"count":5724,"type":"VEC3"},{"bufferView":2,"componentType":5126,"count":5724,"type":"VEC2"},{"bufferView":3,"componentType":5125,"count":5724,"type":"SCALAR"},{"bufferView":4,"componentType":5126,"count":9084,"max":[3.0999999046325684,1.867034673690796,1.8699992895126343],"min":[1.5490586757659912,-1.7287729978561401,-1.8693944215774536],"type":"VEC3"},{"bufferView":5,"componentType":5126,"count":9084,"type":"VEC3"},{"bufferView":6,"componentType":5126,"count":9084,"type":"VEC2"},{"bufferView":7,"componentType":5125,"count":9084,"type":"SCALAR"},{"bufferView":8,"componentType":5126,"count":27360,"max":[2.1449999809265137,1.8700000047683716,1.8700000047683716],"min":[1.3949999809265137,-1.8700000047683716,-1.8700000047683716],"type":"VEC3"},{"bufferView":9,"componentType":5126,"count":27360,"type":"VEC3"},{"bufferView":10,"componentType":5126,"count":27360,"type":"VEC2"},{"bufferView":11,"componentType":5125,"count":27360,"type":"SCALAR"},{"bufferView":12,"componentType":5126,"count":39810,"max":[19.149999618530273,4.977441310882568,4.980000019073486],"min":[-6.759862003491435e-08,-4.977441310882568,-4.980000019073486],"type":"VEC3"},{"bufferView":13,"componentType":5126,"count":39810,"type":"VEC3"},{"bufferView":14,"componentType":5126,"count":39810,"type":"VEC2"},{"bufferView":15,"componentType":5125,"count":39810,"type":"SCALAR"},{"bufferView":16,"componentType":5126,"count":25284,"max":[13.709970474243164,4.457509517669678,4.460000038146973],"min":[4.250171661376953,-4.457509517669678,-4.460000038146973],"type":"VEC3"},{"bufferView":17,"componentType":5126,"count":25284,"type":"VEC3"},{"bufferView":18,"componentType":5126,"count":25284,"type":"VEC2"},{"bufferView":19,"componentType":5125,"count":25284,"type":"SCALAR"},{"bufferView":20,"componentType":5126,"count":80658,"max":[15.647364616394043,4.4974870681762695,4.5],"min":[-3.663953407340159e-08,-4.4974870681762695,-4.5],"type":"VEC3"},{"bufferView":21,"componentType":5126,"count":80658,"type":"VEC3"},{"bufferView":22,"componentType":5126,"count":80658,"type":"VEC2"},{"bufferView":23,"componentType":5125,"count":80658,"type":"SCALAR"},{"bufferView":24,"componentType":5126,"count":41106,"max":[15.319989204406738,4.167459964752197,4.170000076293945],"min":[0.32999998331069946,-4.167459964752197,-4.170000076293945],"type":"VEC3"},{"bufferView":25,"componentType":5126,"count":41106,"type":"VEC3"},{"bufferView":26,"componentType":5126,"count":41106,"type":"VEC2"},{"bufferView":27,"componentType":5125,"count":41106,"type":"SCALAR"}],"asset":{"generator":"Keyshot Studio","version":"2.0"},"bufferViews":[{"buffer":0,"byteLength":68688,"byteOffset":0,"byteStride":12},{"buffer":0,"byteLength":68688,"byteOffset":68688,"byteStride":12},{"buffer":0,"byteLength":45792,"byteOffset":137376,"byteStride":8},{"buffer":0,"byteLength":22896,"byteOffset":183168},{"buffer":0,"byteLength":109008,"byteOffset":206064,"byteStride":12},{"buffer":0,"byteLength":109008,"byteOffset":315072,"byteStride":12},{"buffer":0,"byteLength":72672,"byteOffset":424080,"byteStride":8},{"buffer":0,"byteLength":36336,"byteOffset":496752},{"buffer":0,"byteLength":328320,"byteOffset":533088,"byteStride":12},{"buffer":0,"byteLength":328320,"byteOffset":861408,"byteStride":12},{"buffer":0,"byteLength":218880,"byteOffset":1189728,"byteStride":8},{"buffer":0,"byteLength":109440,"byteOffset":1408608},{"buffer":0,"byteLength":477720,"byteOffset":1518048,"byteStride":12},{"buffer":0,"byteLength":477720,"byteOffset":1995768,"byteStride":12},{"buffer":0,"byteLength":318480,"byteOffset":2473488,"byteStride":8},{"buffer":0,"byteLength":159240,"byteOffset":2791968},{"buffer":0,"byteLength":303408,"byteOffset":2951208,"byteStride":12},{"buffer":0,"byteLength":303408,"byteOffset":3254616,"byteStride":12},{"buffer":0,"byteLength":202272,"byteOffset":3558024,"byteStride":8},{"buffer":0,"byteLength":101136,"byteOffset":3760296},{"buffer":0,"byteLength":967896,"byteOffset":3861432,"byteStride":12},{"buffer":0,"byteLength":967896,"byteOffset":4829328,"byteStride":12},{"buffer":0,"byteLength":645264,"byteOffset":5797224,"byteStride":8},{"buffer":0,"byteLength":322632,"byteOffset":6442488},{"buffer":0,"byteLength":493272,"byteOffset":6765120,"byteStride":12},{"buffer":0,"byteLength":493272,"byteOffset":7258392,"byteStride":12},{"buffer":0,"byteLength":328848,"byteOffset":7751664,"byteStride":8},{"buffer":0,"byteLength":164424,"byteOffset":8080512}],"buffers":[{"byteLength":8244936,"uri":"./Náboj_9mm_Luger_8g_(124gr)_resources/Náboj_9mm_Luger_8g_(124gr).bin"}],"cameras":[{"name":"active","perspective":{"aspectRatio":1.0,"yfov":0.6911154697478635,"znear":0.0872291624546051},"type":"perspective"}],"images":[{"uri":"./Náboj_9mm_Luger_8g_(124gr)_resources/Brass_Rough__#1_0_occlusion.jpeg"},{"uri":"./Náboj_9mm_Luger_8g_(124gr)_resources/Brass_Rough__#1_12_occlusion.jpeg"},{"uri":"./Náboj_9mm_Luger_8g_(124gr)_resources/Brass_Rough__#1_51_occlusion.jpeg"},{"uri":"./Náboj_9mm_Luger_8g_(124gr)_resources/Brass_Rough__#1_60_occlusion.jpeg"},{"uri":"./Náboj_9mm_Luger_8g_(124gr)_resources/Střelný_prach_9mm_Luger_8g_(124gr)_FMJ_Střelný_prach_9mm_Luger_color_128_128_128_253_occlusion.jpeg"},{"uri":"./Náboj_9mm_Luger_8g_(124gr)_resources/Brass_Rough__#2_316_occlusion.jpeg"},{"uri":"./Náboj_9mm_Luger_8g_(124gr)_resources/Brass_Rough__#2_345_occlusion.jpeg"}],"materials":[{"doubleSided":true,"name":"Brass_Rough__#1_0","occlusionTexture":{"index":0},"pbrMetallicRoughness":{"baseColorFactor":[0.9085993766784668,0.7786409258842468,0.42343220114707947,1.0],"metallicFactor":1.0,"roughnessFactor":0.3162277638912201}},{"doubleSided":true,"name":"Brass_Rough__#1_12","occlusionTexture":{"index":1},"pbrMetallicRoughness":{"baseColorFactor":[0.9085993766784668,0.7786409258842468,0.42343220114707947,1.0],"metallicFactor":1.0,"roughnessFactor":0.3162277638912201}},{"doubleSided":true,"name":"Brass_Rough__#1_51","occlusionTexture":{"index":2},"pbrMetallicRoughness":{"baseColorFactor":[0.9085993766784668,0.7786409258842468,0.42343220114707947,1.0],"metallicFactor":1.0,"roughnessFactor":0.3162277638912201}},{"doubleSided":true,"name":"Brass_Rough__#1_60","occlusionTexture":{"index":3},"pbrMetallicRoughness":{"baseColorFactor":[0.9085993766784668,0.7786409258842468,0.42343220114707947,1.0],"metallicFactor":1.0,"roughnessFactor":0.3162277638912201}},{"doubleSided":true,"name":"Střelný_prach_9mm_Luger_8g_(124gr)_FMJ_Střelný_prach_9mm_Luger_color_128_128_128_253","occlusionTexture":{"index":4},"pbrMetallicRoughness":{"baseColorFactor":[0.5019609928131104,0.5019609928131104,0.5019609928131104,1.0],"metallicFactor":0.0,"roughnessFactor":1.0}},{"doubleSided":true,"name":"Brass_Rough__#2_316","occlusionTexture":{"index":5},"pbrMetallicRoughness":{"baseColorFactor":[0.9085993766784668,0.7786409258842468,0.42343220114707947,1.0],"metallicFactor":1.0,"roughnessFactor":0.3162277638912201}},{"doubleSided":true,"name":"Brass_Rough__#2_345","occlusionTexture":{"index":6},"pbrMetallicRoughness":{"baseColorFactor":[0.9085993766784668,0.7786409258842468,0.42343220114707947,1.0],"metallicFactor":1.0,"roughnessFactor":0.3162277638912201}}],"meshes":[{"name":"Nábojnice_9mm_se_zápalkou_Nábojnice po soustruhu","primitives":[{"attributes":{"NORMAL":1,"POSITION":0,"TEXCOORD_0":2},"indices":3,"material":0,"mode":4}]},{"name":"Nábojnice_9mm_se_zápalkou_Nábojnice po soustruhu","primitives":[{"attributes":{"NORMAL":5,"POSITION":4,"TEXCOORD_0":6},"indices":7,"material":1,"mode":4}]},{"name":"Nábojnice_9mm_se_zápalkou_Nábojnice po soustruhu","primitives":[{"attributes":{"NORMAL":9,"POSITION":8,"TEXCOORD_0":10},"indices":11,"material":2,"mode":4}]},{"name":"Nábojnice_9mm_se_zápalkou_Nábojnice po soustruhu","primitives":[{"attributes":{"NORMAL":13,"POSITION":12,"TEXCOORD_0":14},"indices":15,"material":3,"mode":4}]},{"name":"Střelný_prach_9mm_Luger_8g_(124gr)_FMJ_Střelný_prach_9mm_Luger","primitives":[{"attributes":{"NORMAL":17,"POSITION":16,"TEXCOORD_0":18},"indices":19,"material":4,"mode":4}]},{"name":"Střela_9mm_Luger_FMJ_124grs_(8g)","primitives":[{"attributes":{"NORMAL":21,"POSITION":20,"TEXCOORD_0":22},"indices":23,"material":5,"mode":4}]},{"name":"Střela_9mm_Luger_FMJ_124grs_(8g)","primitives":[{"attributes":{"NORMAL":25,"POSITION":24,"TEXCOORD_0":26},"indices":27,"material":6,"mode":4}]}],"nodes":[{"camera":0,"matrix":[0.0004726618181921083,-1.7380637729047521e-10,0.0008812439880954629,0.0,0.0007468972605556505,0.0005307173195063109,-0.0004006038392362242,0.0,-0.0004676913022994995,0.0008475487232208252,0.0002508499026298523,0.0,-0.04660043334960937,0.08942660522460938,0.0249945125579834,1.0],"name":"active"},{"mesh":0,"name":"Nábojnice_9mm_se_zápalkou_Nábojnice po soustruhu"},{"mesh":1,"name":"Nábojnice_9mm_se_zápalkou_Nábojnice po soustruhu"},{"mesh":2,"name":"Nábojnice_9mm_se_zápalkou_Nábojnice po soustruhu"},{"mesh":3,"name":"Nábojnice_9mm_se_zápalkou_Nábojnice po soustruhu"},{"children":[1,2,3,4],"matrix":[1.0,0.0,0.0,0.0,0.0,1.0,0.0,0.0,0.0,0.0,1.0,0.0,-33.87620162963867,-3.8979599475860596,28.811199188232422,1.0],"name":"Nábojnice_9mm_se_zápalkou_Nábojnice po soustruhu"},{"mesh":4,"name":"Střelný_prach_9mm_Luger_8g_(124gr)_FMJ_Střelný_prach_9mm_Luger"},{"children":[6],"matrix":[1.0,0.0,0.0,0.0,0.0,1.0,0.0,0.0,0.0,0.0,1.0,0.0,-33.87620162963867,-3.8979599475860596,28.811199188232422,1.0],"name":"Střelný_prach_9mm_Luger_8g_(124gr)_FMJ_Střelný_prach_9mm_Luger"},{"mesh":5,"name":"Střela_9mm_Luger_FMJ_124grs_(8g)"},{"mesh":6,"name":"Střela_9mm_Luger_FMJ_124grs_(8g)"},{"children":[8,9],"matrix":[1.0,0.0,0.0,0.0,0.0,1.0,0.0,0.0,0.0,0.0,1.0,0.0,-19.836200714111328,-3.8979599475860596,28.811199188232422,1.0],"name":"Střela_9mm_Luger_FMJ_124grs_(8g)"},{"children":[5,7,10],"matrix":[1.0,0.0,0.0,0.0,0.0,1.0,0.0,0.0,0.0,0.0,1.0,0.0,19.03251838684082,8.875401496887207,-28.811199188232422,1.0],"name":"Náboj_9mm_Luger_8g_(124gr)_FMJ"},{"children":[11],"name":"New Model Set"},{"name":"Default"},{"children":[12,13],"matrix":[0.001,0.0,0.0,0.0,0.0,0.001,0.0,0.0,0.0,0.0,0.001,0.0,0.0,0.0,0.0,1.0],"name":"lux_root"}],"samplers":[{"magFilter":9729,"minFilter":9987,"wrapS":10497,"wrapT":10497},{"magFilter":9729,"minFilter":9987,"wrapS":10497,"wrapT":10497},{"magFilter":9729,"minFilter":9987,"wrapS":10497,"wrapT":10497},{"magFilter":9729,"minFilter":9987,"wrapS":10497,"wrapT":10497},{"magFilter":9729,"minFilter":9987,"wrapS":10497,"wrapT":10497},{"magFilter":9729,"minFilter":9987,"wrapS":10497,"wrapT":10497},{"magFilter":9729,"minFilter":9987,"wrapS":10497,"wrapT":10497}],"scenes":[{"nodes":[0,14]}],"textures":[{"sampler":0,"source":0},{"sampler":1,"source":1},{"sampler":2,"source":2},{"sampler":3,"source":3},{"sampler":4,"source":4},{"sampler":5,"source":5},{"sampler":6,"source":6}]}   