{"accessors":[{"bufferView":0,"componentType":5126,"count":36,"max":[30.0,30.0,101.0],"min":[-30.0,-30.0,-101.0],"type":"VEC3"},{"bufferView":1,"componentType":5126,"count":36,"type":"VEC3"},{"bufferView":2,"componentType":5126,"count":36,"type":"VEC2"},{"bufferView":3,"componentType":5125,"count":36,"type":"SCALAR"},{"bufferView":4,"componentType":5126,"count":131526,"max":[107.1365966796875,1.9984014443252818e-15,31.5],"min":[-107.1365966796875,-65.5,-31.5],"type":"VEC3"},{"bufferView":5,"componentType":5126,"count":131526,"type":"VEC3"},{"bufferView":6,"componentType":5126,"count":131526,"type":"VEC2"},{"bufferView":7,"componentType":5125,"count":131526,"type":"SCALAR"},{"bufferView":8,"componentType":5126,"count":299490,"max":[94.0,0.10000000149011612,0.0],"min":[0.0,0.0,-50.0],"type":"VEC3"},{"bufferView":9,"componentType":5126,"count":299490,"type":"VEC3"},{"bufferView":10,"componentType":5126,"count":299490,"type":"VEC2"},{"bufferView":11,"componentType":5125,"count":299490,"type":"SCALAR"}],"asset":{"generator":"Keyshot Studio","version":"2.0"},"bufferViews":[{"buffer":0,"byteLength":432,"byteOffset":0,"byteStride":12},{"buffer":0,"byteLength":432,"byteOffset":432,"byteStride":12},{"buffer":0,"byteLength":288,"byteOffset":864,"byteStride":8},{"buffer":0,"byteLength":144,"byteOffset":1152},{"buffer":0,"byteLength":1578312,"byteOffset":1296,"byteStride":12},{"buffer":0,"byteLength":1578312,"byteOffset":1579608,"byteStride":12},{"buffer":0,"byteLength":1052208,"byteOffset":3157920,"byteStride":8},{"buffer":0,"byteLength":526104,"byteOffset":4210128},{"buffer":0,"byteLength":3593880,"byteOffset":4736232,"byteStride":12},{"buffer":0,"byteLength":3593880,"byteOffset":8330112,"byteStride":12},{"buffer":0,"byteLength":2395920,"byteOffset":11923992,"byteStride":8},{"buffer":0,"byteLength":1197960,"byteOffset":14319912}],"buffers":[{"byteLength":15517872,"uri":"./Black_dough_resources/Black_dough.bin"}],"cameras":[{"name":"active","perspective":{"aspectRatio":1.0,"yfov":0.6911154697478635,"znear":0.3523709774017334},"type":"perspective"}],"extensionsUsed":["KHR_materials_specular","KHR_materials_clearcoat"],"images":[{"uri":"./Black_dough_resources/Rubber_#1_0_occlusion.jpeg"},{"uri":"./Black_dough_resources/Rubber_#1_0_normal.jpeg"},{"uri":"./Black_dough_resources/Amazon_cardboard_15x15cm_#1_7_color.jpeg"},{"uri":"./Black_dough_resources/Amazon_cardboard_15x15cm_#1_7_roughness_metalness.jpeg"},{"uri":"./Black_dough_resources/Amazon_cardboard_15x15cm_#1_7_specularColor.jpeg"},{"uri":"./Black_dough_resources/Amazon_cardboard_15x15cm_#1_7_occlusion.jpeg"},{"uri":"./Black_dough_resources/Amazon_cardboard_15x15cm_#1_7_normal.jpeg"},{"uri":"./Black_dough_resources/Paint_Matte_White_#1_114_color.jpeg"},{"uri":"./Black_dough_resources/Paint_Matte_White_#1_114_roughness_metalness.jpeg"},{"uri":"./Black_dough_resources/Paint_Matte_White_#1_114_clearcoat.jpeg"},{"uri":"./Black_dough_resources/Paint_Matte_White_#1_114_clearcoatRoughness.jpeg"},{"uri":"./Black_dough_resources/Paint_Matte_White_#1_114_occlusion.jpeg"}],"materials":[{"doubleSided":true,"extensions":{"KHR_materials_specular":{"specularColorFactor":[0.6399999856948853,0.6399999856948853,0.6399999856948853],"specularFactor":1.0}},"name":"Rubber_#1_0","normalTexture":{"index":1,"scale":1.0},"occlusionTexture":{"index":0},"pbrMetallicRoughness":{"baseColorFactor":[0.00039999998989515007,0.00039999998989515007,0.00039999998989515007,1.0],"metallicFactor":0.0,"roughnessFactor":0.4472135901451111}},{"doubleSided":true,"extensions":{"KHR_materials_specular":{"specularColorTexture":{"index":4},"specularFactor":1.0}},"name":"Amazon_cardboard_15x15cm_#1_7","normalTexture":{"index":6,"scale":1.0},"occlusionTexture":{"index":5},"pbrMetallicRoughness":{"baseColorTexture":{"index":2},"metallicRoughnessTexture":{"index":3}}},{"doubleSided":true,"extensions":{"KHR_materials_clearcoat":{"clearcoatFactor":1.0,"clearcoatRoughnessFactor":1.0,"clearcoatRoughnessTexture":{"index":10},"clearcoatTexture":{"index":9}},"KHR_materials_specular":{"specularColorFactor":[1.0,1.0,1.0],"specularFactor":1.0}},"name":"Paint_Matte_White_#1_114","occlusionTexture":{"index":11},"pbrMetallicRoughness":{"baseColorTexture":{"index":7},"metallicRoughnessTexture":{"index":8}}}],"meshes":[{"name":"POL00028616_BLACK DOUGH T2","primitives":[{"attributes":{"NORMAL":1,"POSITION":0,"TEXCOORD_0":2},"indices":3,"material":0,"mode":4}]},{"name":"MAT00029103_VýchozíSM-FLAT-PATTERN","primitives":[{"attributes":{"NORMAL":5,"POSITION":4,"TEXCOORD_0":6},"indices":7,"material":1,"mode":4}]},{"name":"S4-BPD-0922","primitives":[{"attributes":{"NORMAL":9,"POSITION":8,"TEXCOORD_0":10},"indices":11,"material":2,"mode":4}]}],"nodes":[{"camera":0,"matrix":[0.0006531560046185412,-2.7735841356957283e-10,0.0007572233886333297,0.0,0.00021971204999339045,0.0009569795475311589,-0.0001895160417230494,0.0,-0.0007246472239494324,0.0002901546359062195,0.0006250569820404053,0.0,-0.32469998168945313,0.16293406677246094,0.2857917175292969,1.0],"name":"active"},{"mesh":0,"name":"POL00028616_BLACK DOUGH T2"},{"children":[1],"name":"POL00028616_BLACK DOUGH T2"},{"children":[2],"name":"BPD-24-1071"},{"mesh":1,"name":"MAT00029103_VýchozíSM-FLAT-PATTERN"},{"children":[4],"matrix":[-4.124480029378026e-17,-4.3773799799287226e-16,-1.0,0.0,9.045450285349892e-17,1.0,-4.3773799799287226e-16,0.0,1.0,-9.045450285349892e-17,1.2528899750712804e-16,0.0,-0.10000000149011612,31.399999618530273,1.1698300206135215e-13,1.0],"name":"MAT00029103_VýchozíSM-FLAT-PATTERN"},{"mesh":2,"name":"S4-BPD-0922"},{"children":[6],"matrix":[-6.120300087856991e-17,3.624220200207709e-15,1.0,0.0,1.0,3.4751999997313654e-15,6.120300087856991e-17,0.0,-3.4751999997313654e-15,1.0,-3.624220200207709e-15,0.0,31.399999618530273,23.899999618530273,-36.863399505615234,1.0],"name":"S4-BPD-0922"},{"children":[3,5,7],"matrix":[-1.0,-1.2246467991473532e-16,0.0,0.0,1.2246467991473532e-16,-1.0,0.0,0.0,0.0,0.0,1.0,0.0,-0.05000019073469969,31.40000152587892,0.0,1.0],"name":"Black_dough"},{"children":[8],"name":"New Model Set"},{"name":"Default"},{"children":[9,10],"matrix":[0.001,0.0,0.0,0.0,0.0,0.001,0.0,0.0,0.0,0.0,0.001,0.0,0.0,0.0,0.0,1.0],"name":"lux_root"}],"samplers":[{"magFilter":9729,"minFilter":9987,"wrapS":10497,"wrapT":10497},{"magFilter":9729,"minFilter":9987,"wrapS":10497,"wrapT":10497},{"magFilter":9729,"minFilter":9987,"wrapS":10497,"wrapT":10497},{"magFilter":9729,"minFilter":9987,"wrapS":10497,"wrapT":10497},{"magFilter":9729,"minFilter":9987,"wrapS":10497,"wrapT":10497},{"magFilter":9729,"minFilter":9987,"wrapS":10497,"wrapT":10497},{"magFilter":9729,"minFilter":9987,"wrapS":10497,"wrapT":10497},{"magFilter":9729,"minFilter":9987,"wrapS":10497,"wrapT":10497},{"magFilter":9729,"minFilter":9987,"wrapS":10497,"wrapT":10497},{"magFilter":9729,"minFilter":9987,"wrapS":10497,"wrapT":10497},{"magFilter":9729,"minFilter":9987,"wrapS":10497,"wrapT":10497},{"magFilter":9729,"minFilter":9987,"wrapS":10497,"wrapT":10497}],"scenes":[{"nodes":[0,11]}],"textures":[{"sampler":0,"source":0},{"sampler":1,"source":1},{"sampler":2,"source":2},{"sampler":3,"source":3},{"sampler":4,"source":4},{"sampler":5,"source":5},{"sampler":6,"source":6},{"sampler":7,"source":7},{"sampler":8,"source":8},{"sampler":9,"source":9},{"sampler":10,"source":10},{"sampler":11,"source":11}]}