{"accessors":[{"bufferView":0,"componentType":5126,"count":9978,"max":[49.599998474121094,62.79999923706055,0.0],"min":[0.0,0.0,-49.599998474121094],"type":"VEC3"},{"bufferView":1,"componentType":5126,"count":9978,"type":"VEC3"},{"bufferView":2,"componentType":5126,"count":9978,"type":"VEC2"},{"bufferView":3,"componentType":5125,"count":9978,"type":"SCALAR"},{"bufferView":4,"componentType":5126,"count":720,"max":[7.25,10.0,7.25],"min":[-7.25,4.0,-7.25],"type":"VEC3"},{"bufferView":5,"componentType":5126,"count":720,"type":"VEC3"},{"bufferView":6,"componentType":5126,"count":720,"type":"VEC2"},{"bufferView":7,"componentType":5125,"count":720,"type":"SCALAR"},{"bufferView":8,"componentType":5126,"count":5964,"max":[7.237735271453857,10.0,7.25],"min":[-7.237735271453857,-8.881784197001252e-16,-7.25],"type":"VEC3"},{"bufferView":9,"componentType":5126,"count":5964,"type":"VEC3"},{"bufferView":10,"componentType":5126,"count":5964,"type":"VEC2"},{"bufferView":11,"componentType":5125,"count":5964,"type":"SCALAR"},{"bufferView":12,"componentType":5126,"count":19674,"max":[9.5,9.499375343322754,50.0],"min":[-9.5,-9.499375343322754,0.0],"type":"VEC3"},{"bufferView":13,"componentType":5126,"count":19674,"type":"VEC3"},{"bufferView":14,"componentType":5126,"count":19674,"type":"VEC2"},{"bufferView":15,"componentType":5125,"count":19674,"type":"SCALAR"},{"bufferView":16,"componentType":5126,"count":33456,"max":[50.0,63.0,50.0],"min":[0.0,0.0,-1.9496899347814026e-14],"type":"VEC3"},{"bufferView":17,"componentType":5126,"count":33456,"type":"VEC3"},{"bufferView":18,"componentType":5126,"count":33456,"type":"VEC2"},{"bufferView":19,"componentType":5125,"count":33456,"type":"SCALAR"},{"bufferView":20,"componentType":5126,"count":1644,"max":[8.997527122497559,0.5,9.0],"min":[-8.997527122497559,0.0,-9.0],"type":"VEC3"},{"bufferView":21,"componentType":5126,"count":1644,"type":"VEC3"},{"bufferView":22,"componentType":5126,"count":1644,"type":"VEC2"},{"bufferView":23,"componentType":5125,"count":1644,"type":"SCALAR"},{"bufferView":24,"componentType":5126,"count":2532,"max":[50.0,0.0,0.20000000298023224],"min":[-1.9984013913857226e-16,-50.0,-6.245004513516506e-14],"type":"VEC3"},{"bufferView":25,"componentType":5126,"count":2532,"type":"VEC3"},{"bufferView":26,"componentType":5126,"count":2532,"type":"VEC2"},{"bufferView":27,"componentType":5125,"count":2532,"type":"SCALAR"}],"asset":{"generator":"Keyshot Studio","version":"2.0"},"bufferViews":[{"buffer":0,"byteLength":119736,"byteOffset":0,"byteStride":12},{"buffer":0,"byteLength":119736,"byteOffset":119736,"byteStride":12},{"buffer":0,"byteLength":79824,"byteOffset":239472,"byteStride":8},{"buffer":0,"byteLength":39912,"byteOffset":319296},{"buffer":0,"byteLength":8640,"byteOffset":359208,"byteStride":12},{"buffer":0,"byteLength":8640,"byteOffset":367848,"byteStride":12},{"buffer":0,"byteLength":5760,"byteOffset":376488,"byteStride":8},{"buffer":0,"byteLength":2880,"byteOffset":382248},{"buffer":0,"byteLength":71568,"byteOffset":385128,"byteStride":12},{"buffer":0,"byteLength":71568,"byteOffset":456696,"byteStride":12},{"buffer":0,"byteLength":47712,"byteOffset":528264,"byteStride":8},{"buffer":0,"byteLength":23856,"byteOffset":575976},{"buffer":0,"byteLength":236088,"byteOffset":599832,"byteStride":12},{"buffer":0,"byteLength":236088,"byteOffset":835920,"byteStride":12},{"buffer":0,"byteLength":157392,"byteOffset":1072008,"byteStride":8},{"buffer":0,"byteLength":78696,"byteOffset":1229400},{"buffer":0,"byteLength":401472,"byteOffset":1308096,"byteStride":12},{"buffer":0,"byteLength":401472,"byteOffset":1709568,"byteStride":12},{"buffer":0,"byteLength":267648,"byteOffset":2111040,"byteStride":8},{"buffer":0,"byteLength":133824,"byteOffset":2378688},{"buffer":0,"byteLength":19728,"byteOffset":2512512,"byteStride":12},{"buffer":0,"byteLength":19728,"byteOffset":2532240,"byteStride":12},{"buffer":0,"byteLength":13152,"byteOffset":2551968,"byteStride":8},{"buffer":0,"byteLength":6576,"byteOffset":2565120},{"buffer":0,"byteLength":30384,"byteOffset":2571696,"byteStride":12},{"buffer":0,"byteLength":30384,"byteOffset":2602080,"byteStride":12},{"buffer":0,"byteLength":20256,"byteOffset":2632464,"byteStride":8},{"buffer":0,"byteLength":10128,"byteOffset":2652720}],"buffers":[{"byteLength":2662848,"uri":"./TNT_250g_resources/TNT_250g.bin"}],"cameras":[{"name":"active","perspective":{"aspectRatio":1.0,"yfov":0.6911154697478635,"znear":0.22334600985050201},"type":"perspective"}],"extensionsUsed":["KHR_materials_ior","KHR_materials_specular","KHR_materials_clearcoat"],"images":[{"uri":"./TNT_250g_resources/TNT_NÁLOŽKA_250_color_178_178_178_0_occlusion.jpeg"},{"uri":"./TNT_250g_resources/S4-TNN-0381_color_203_210_239_9_occlusion.jpeg"},{"uri":"./TNT_250g_resources/S4-TNN-0381_color_202_209_238_11_occlusion.jpeg"},{"uri":"./TNT_250g_resources/S4-TNN-0383_color_64_64_64_20_occlusion.jpeg"},{"uri":"./TNT_250g_resources/OpenPBR_Leather030_2K-ambientCG_#1_32_color.jpeg"},{"uri":"./TNT_250g_resources/OpenPBR_Leather030_2K-ambientCG_#1_32_roughness_metalness.jpeg"},{"uri":"./TNT_250g_resources/OpenPBR_Leather030_2K-ambientCG_#1_32_clearcoatRoughness.jpeg"},{"uri":"./TNT_250g_resources/OpenPBR_Leather030_2K-ambientCG_#1_32_occlusion.jpeg"},{"uri":"./TNT_250g_resources/Leather_White_1000mm_#1_517_color.jpeg"},{"uri":"./TNT_250g_resources/Leather_White_1000mm_#1_517_occlusion.jpeg"},{"uri":"./TNT_250g_resources/Leather_White_1000mm_#1_517_normal.jpeg"},{"uri":"./TNT_250g_resources/OpenPBR_Leather030_2K-ambientCG_#1_521_color.jpeg"},{"uri":"./TNT_250g_resources/OpenPBR_Leather030_2K-ambientCG_#1_521_roughness_metalness.jpeg"},{"uri":"./TNT_250g_resources/OpenPBR_Leather030_2K-ambientCG_#1_521_clearcoatRoughness.jpeg"},{"uri":"./TNT_250g_resources/OpenPBR_Leather030_2K-ambientCG_#1_521_occlusion.jpeg"}],"materials":[{"doubleSided":true,"name":"TNT_NÁLOŽKA_250_color_178_178_178_0","occlusionTexture":{"index":0},"pbrMetallicRoughness":{"baseColorFactor":[0.6980389952659607,0.6980389952659607,0.6980389952659607,1.0],"metallicFactor":0.0,"roughnessFactor":1.0}},{"doubleSided":true,"name":"S4-TNN-0381_color_203_210_239_9","occlusionTexture":{"index":1},"pbrMetallicRoughness":{"baseColorFactor":[0.7960780262947083,0.8235290050506592,0.9372550249099731,1.0],"metallicFactor":0.0,"roughnessFactor":1.0}},{"doubleSided":true,"name":"S4-TNN-0381_color_202_209_238_11","occlusionTexture":{"index":2},"pbrMetallicRoughness":{"baseColorFactor":[0.792156994342804,0.8196079730987549,0.9333329796791077,1.0],"metallicFactor":0.0,"roughnessFactor":1.0}},{"doubleSided":true,"name":"S4-TNN-0383_color_64_64_64_20","occlusionTexture":{"index":3},"pbrMetallicRoughness":{"baseColorFactor":[0.2509799897670746,0.2509799897670746,0.2509799897670746,1.0],"metallicFactor":0.0,"roughnessFactor":1.0}},{"doubleSided":true,"extensions":{"KHR_materials_clearcoat":{"clearcoatRoughnessFactor":1.0,"clearcoatRoughnessTexture":{"index":6}},"KHR_materials_specular":{"specularColorFactor":[1.0,1.0,1.0],"specularFactor":1.0}},"name":"OpenPBR_Leather030_2K-ambientCG_#1_32","occlusionTexture":{"index":7},"pbrMetallicRoughness":{"baseColorTexture":{"index":4},"metallicRoughnessTexture":{"index":5}}},{"doubleSided":true,"extensions":{"KHR_materials_ior":{"ior":1.4500000476837158},"KHR_materials_specular":{"specularColorFactor":[1.0,1.0,1.0],"specularFactor":1.0}},"name":"Leather_White_1000mm_#1_517","normalTexture":{"index":10,"scale":1.0},"occlusionTexture":{"index":9},"pbrMetallicRoughness":{"baseColorTexture":{"index":8},"metallicFactor":0.0,"roughnessFactor":0.3162277638912201}},{"doubleSided":true,"extensions":{"KHR_materials_clearcoat":{"clearcoatRoughnessFactor":1.0,"clearcoatRoughnessTexture":{"index":13}},"KHR_materials_specular":{"specularColorFactor":[1.0,1.0,1.0],"specularFactor":1.0}},"name":"OpenPBR_Leather030_2K-ambientCG_#1_521","occlusionTexture":{"index":14},"pbrMetallicRoughness":{"baseColorTexture":{"index":11},"metallicRoughnessTexture":{"index":12}}}],"meshes":[{"name":"TNT_NÁLOŽKA 250","primitives":[{"attributes":{"NORMAL":1,"POSITION":0,"TEXCOORD_0":2},"indices":3,"material":0,"mode":4}]},{"name":"S4-TNN-0381","primitives":[{"attributes":{"NORMAL":5,"POSITION":4,"TEXCOORD_0":6},"indices":7,"material":1,"mode":4}]},{"name":"S4-TNN-0381","primitives":[{"attributes":{"NORMAL":9,"POSITION":8,"TEXCOORD_0":10},"indices":11,"material":2,"mode":4}]},{"name":"S4-TNN-0383","primitives":[{"attributes":{"NORMAL":13,"POSITION":12,"TEXCOORD_0":14},"indices":15,"material":3,"mode":4}]},{"name":"S4-TNN-0396","primitives":[{"attributes":{"NORMAL":17,"POSITION":16,"TEXCOORD_0":18},"indices":19,"material":4,"mode":4}]},{"name":"S4-TNN-0387","primitives":[{"attributes":{"NORMAL":21,"POSITION":20,"TEXCOORD_0":22},"indices":23,"material":5,"mode":4}]},{"name":"S4-TNN-0385","primitives":[{"attributes":{"NORMAL":25,"POSITION":24,"TEXCOORD_0":26},"indices":27,"material":6,"mode":4}]}],"nodes":[{"camera":0,"matrix":[0.0002659751650442921,-2.0529569866312158e-10,0.000963979899106036,0.0,0.0007819635979510742,0.0005847930587556732,-0.0002157542674500188,0.0,-0.0005637286901473999,0.00081118243932724,0.0001555405855178833,0.0,-0.14494378662109375,0.24041812133789062,0.039992000579833986,1.0],"name":"active"},{"mesh":0,"name":"TNT_NÁLOŽKA 250"},{"children":[1],"name":"TNT_NÁLOŽKA 250"},{"mesh":1,"name":"S4-TNN-0381"},{"mesh":2,"name":"S4-TNN-0381"},{"children":[3,4],"matrix":[-0.6178190112113953,0.7863199710845947,0.0,0.0,0.0,0.0,1.0,0.0,0.7863199710845947,0.6178190112113953,0.0,0.0,0.16981500387191772,3.3113999366760254,65.0,1.0],"name":"S4-TNN-0381"},{"mesh":3,"name":"S4-TNN-0383"},{"children":[6],"matrix":[1.0,-5.551119755337213e-17,0.0,0.0,5.551119755337213e-17,1.0,0.0,0.0,0.0,0.0,1.0,0.0,0.16981500387191772,3.3113999366760254,25.0,1.0],"name":"S4-TNN-0383"},{"children":[5,7],"matrix":[-0.8371689915657043,0.0,-0.5469440221786499,0.0,-0.5469440221786499,0.0,0.8371689915657043,0.0,0.0,1.0,0.0,0.0,26.753299713134766,-12.199999809265137,-27.479299545288086,1.0],"name":"S4-TNN-0386"},{"children":[2,8],"matrix":[-1.0,0.0,0.0,0.0,0.0,-1.0,0.0,0.0,0.0,0.0,1.0,0.0,22.851200103759766,38.255401611328125,88.80000305175781,1.0],"name":"S4-TNN-0400"},{"mesh":4,"name":"S4-TNN-0396"},{"children":[10],"matrix":[1.0,0.0,0.0,0.0,0.0,1.0,0.0,0.0,0.0,0.0,1.0,0.0,-26.94879913330078,-24.544599533081055,39.0,1.0],"name":"S4-TNN-0396"},{"mesh":5,"name":"S4-TNN-0387"},{"children":[12],"matrix":[0.25225698947906494,0.0,-0.9676600098609924,0.0,0.0,1.0,0.0,0.0,0.9676600098609924,0.0,0.25225698947906494,0.0,-1.9488099813461304,-25.244600296020508,64.0,1.0],"name":"S4-TNN-0387"},{"mesh":6,"name":"S4-TNN-0385"},{"children":[14],"matrix":[-1.0,1.232600013322028e-32,0.0,0.0,0.0,0.0,-1.0,0.0,-1.1102199806005023e-16,-1.0,0.0,0.0,23.05120086669922,-24.544599533081055,39.0,1.0],"name":"S4-TNN-0385"},{"children":[9,11,13,15],"matrix":[1.0,0.0,0.0,0.0,0.0,6.123233995736767e-17,1.0,0.0,0.0,-1.0,6.123233995736765e-17,0.0,1.948799133300781,89.0,-6.60540008544923,1.0],"name":"TNT_250"},{"children":[16],"name":"New Model Set"},{"name":"Default"},{"children":[17,18],"matrix":[0.001,0.0,0.0,0.0,0.0,0.001,0.0,0.0,0.0,0.0,0.001,0.0,0.0,0.0,0.0,1.0],"name":"lux_root"}],"samplers":[{"magFilter":9729,"minFilter":9987,"wrapS":10497,"wrapT":10497},{"magFilter":9729,"minFilter":9987,"wrapS":10497,"wrapT":10497},{"magFilter":9729,"minFilter":9987,"wrapS":10497,"wrapT":10497},{"magFilter":9729,"minFilter":9987,"wrapS":10497,"wrapT":10497},{"magFilter":9729,"minFilter":9987,"wrapS":10497,"wrapT":10497},{"magFilter":9729,"minFilter":9987,"wrapS":10497,"wrapT":10497},{"magFilter":9729,"minFilter":9987,"wrapS":10497,"wrapT":10497},{"magFilter":9729,"minFilter":9987,"wrapS":10497,"wrapT":10497},{"magFilter":9729,"minFilter":9987,"wrapS":10497,"wrapT":10497},{"magFilter":9729,"minFilter":9987,"wrapS":10497,"wrapT":10497},{"magFilter":9729,"minFilter":9987,"wrapS":10497,"wrapT":10497},{"magFilter":9729,"minFilter":9987,"wrapS":10497,"wrapT":10497},{"magFilter":9729,"minFilter":9987,"wrapS":10497,"wrapT":10497},{"magFilter":9729,"minFilter":9987,"wrapS":10497,"wrapT":10497},{"magFilter":9729,"minFilter":9987,"wrapS":10497,"wrapT":10497}],"scenes":[{"nodes":[0,19]}],"textures":[{"sampler":0,"source":0},{"sampler":1,"source":1},{"sampler":2,"source":2},{"sampler":3,"source":3},{"sampler":4,"source":4},{"sampler":5,"source":5},{"sampler":6,"source":6},{"sampler":7,"source":7},{"sampler":8,"source":8},{"sampler":9,"source":9},{"sampler":10,"source":10},{"sampler":11,"source":11},{"sampler":12,"source":12},{"sampler":13,"source":13},{"sampler":14,"source":14}]} 